<svg width="140" height="50" viewBox="0 0 140 50" fill="none" xmlns="http://www.w3.org/2000/svg">
<g clip-path="url(#clip0_2_50)">
<path d="M109.708 1.04805C109.287 1.59545 108.426 2.72362 107.785 3.57142C106.049 5.86781 103.146 9.62616 100.108 13.518C98.4793 15.6075 96.9239 17.6769 96.2096 18.725C95.5487 19.6796 94.9813 20.5007 94.9479 20.5407C94.9012 20.6075 95.4953 20.6275 97.8852 20.6275H100.883L100.969 20.3872C101.143 19.9065 101.837 18.9786 102.505 18.3378C104.28 16.6355 107.204 15.2537 110.088 14.7463C110.782 14.6262 111.19 14.5995 112.124 14.5995C114.507 14.6128 116.377 15.0334 118.379 16.0147C122.498 18.0307 125.268 21.7356 126.109 26.3351C126.276 27.2563 126.316 29.4126 126.183 30.4339C125.469 35.8478 121.804 40.3004 116.657 42.016C114.374 42.777 111.81 42.9306 109.454 42.4499C105.142 41.5688 101.323 38.725 99.8011 35.247L99.5808 34.7463L97.004 34.7263L94.4272 34.713L94.4673 34.8598C94.9346 36.4352 96.4299 38.972 97.9853 40.8211C99.6609 42.8171 102.064 44.6262 104.481 45.7143C111.61 48.9119 119.908 47.4099 125.409 41.9226C130.602 36.749 132.304 29.0587 129.774 22.2029C128.319 18.251 125.522 14.8531 121.904 12.6502C119.841 11.3952 117.451 10.534 114.921 10.1335C114.08 9.99999 113.72 9.98664 111.991 9.98664C110.449 9.99331 109.888 10.0134 109.394 10.1068C109.047 10.1669 108.76 10.2069 108.746 10.1936C108.733 10.1869 109.694 8.86514 110.869 7.25633L113.019 4.33911H120.282H127.545V2.20293V0.0667419H119.007H110.469L109.708 1.04805Z" fill="#14469B"/>
<path d="M113.406 7.72364L112.999 8.37784L114.347 8.51803C119.36 9.0454 122.251 10.0935 125.208 12.4566C125.983 13.0774 127.458 14.5661 128.139 15.4206C130.696 18.6048 132.244 22.4967 132.625 26.7223C132.732 27.9372 132.665 30.4873 132.491 31.6555C131.817 36.215 129.828 40.2537 126.744 43.3244C124.073 45.9813 120.842 47.6435 117.031 48.3111C116.403 48.4246 114.107 48.4312 75.3952 48.4446L34.4205 48.4646V49.2323V50H74.6275C101.583 50 115.141 49.9733 115.789 49.9266C120.315 49.6061 124.367 47.717 127.718 44.3658C131.25 40.8344 133.359 36.3752 134.033 31.0414C134.167 29.9866 134.147 26.9159 134 25.7009C133.139 18.5981 129.521 12.9907 123.673 9.71296C121.784 8.65154 119.234 7.75702 117.031 7.38318C116.129 7.22965 114.754 7.07611 114.254 7.07611H113.806L113.406 7.72364Z" fill="#487B2E"/>
<path d="M61.2696 10.2136L56.3097 10.247L55.0213 12.3498L53.7329 14.4526L70.2149 14.486L86.6902 14.5194L84.4605 17.5567L82.2309 20.5941L83.0387 20.6142C83.4792 20.6208 83.8798 20.6208 83.9132 20.6075C83.9532 20.5875 84.9946 19.2056 86.2229 17.53L88.4525 14.486H89.4472H90.4352L90.0747 14.9666C89.8811 15.2337 88.8664 16.5888 87.8317 17.9773C86.797 19.3725 85.9292 20.5474 85.9091 20.6008C85.8824 20.6809 86.323 20.6943 88.9666 20.6809L92.064 20.6609L93.1989 19.1522C93.8264 18.3178 95.2349 16.3818 96.3364 14.8465C97.4312 13.3044 98.6261 11.6489 98.9866 11.1616C99.3471 10.6742 99.6408 10.247 99.6408 10.2136C99.6408 10.1469 71.1228 10.1469 61.2696 10.2136Z" fill="#14469B"/>
<path d="M3.84644 27.6702V32.6435L12.3111 32.6302L20.769 32.6101L21.1161 32.4299C21.7904 32.0694 22.2243 31.5487 22.4312 30.8478C22.785 29.6328 22.1241 28.3178 20.9159 27.8238C20.7623 27.7637 20.5287 27.7103 20.4018 27.7036L20.1682 27.6969L20.5087 27.5634C22.5981 26.7356 22.7049 23.8585 20.6822 22.9105L20.3017 22.7303L12.0774 22.7103L3.84644 22.6969V27.6702ZM14.8144 25.3538C15.028 25.5541 15.0881 25.8011 14.988 26.0481C14.8411 26.4085 14.6942 26.4352 12.9252 26.4352H11.3231V25.8011V25.1602L12.9853 25.1802C14.6275 25.2003 14.6542 25.2003 14.8144 25.3538ZM14.8144 29.0921C15.028 29.2924 15.0881 29.5394 14.988 29.7864C14.8411 30.1469 14.6942 30.1736 12.9252 30.1736H11.3231V29.5327V28.8985L12.9853 28.9186C14.6275 28.9386 14.6542 28.9386 14.8144 29.0921Z" fill="#14469B"/>
<path d="M25.275 27.6702V32.6435H34.6208H43.9666V31.4085V30.1736L38.5327 30.1602C33.3525 30.1402 33.0921 30.1335 32.9653 30.0134C32.785 29.8531 32.7183 29.5461 32.8117 29.3191C32.9786 28.9186 32.7049 28.9386 38.5794 28.9186L43.9666 28.9052V27.6702V26.4352L38.5327 26.4219C33.3525 26.4019 33.0921 26.3952 32.9653 26.275C32.785 26.1148 32.7183 25.8077 32.8184 25.5674C32.992 25.1535 32.8117 25.1669 38.6529 25.1669H43.9666V23.9319V22.6969H34.6208H25.275V27.6702Z" fill="#14469B"/>
<path d="M47.1041 27.6702V32.6435H55.8157H64.5274V31.4085V30.1736H60.2483H55.9693L55.7757 29.98L55.5821 29.7864V26.2417V22.6969H51.3431H47.1041V27.6702Z" fill="#14469B"/>
<path d="M68.3458 22.9439C68.3057 23.0841 67.8518 24.7797 67.3377 26.7089L66.3965 30.2203V31.4286V32.6435H70.8357H75.275V31.9893C75.275 31.2617 75.3417 31.0881 75.7022 30.9413C75.9826 30.8211 76.2429 30.8879 76.4432 31.1215C76.5968 31.3017 76.6101 31.3752 76.6101 31.9826V32.6435H80.8491H85.0881V27.6702V22.6969H76.757H68.4192L68.3458 22.9439ZM76.4299 25.4406L76.6101 25.6342V26.7423C76.6101 27.3698 76.5834 27.9039 76.5433 27.9773C76.4566 28.1308 76.1361 28.3044 75.9425 28.3044C75.7356 28.3044 75.4352 28.1108 75.3484 27.9239C75.3084 27.8304 75.275 27.3298 75.275 26.7156C75.275 25.5541 75.3084 25.4339 75.7022 25.267C75.9759 25.1469 76.2029 25.2003 76.4299 25.4406Z" fill="#14469B"/>
<path d="M88.2256 23.9319V25.1602L90.6355 25.1802L93.0453 25.2003L93.2389 25.4206C93.4459 25.6542 93.4793 25.8478 93.3457 26.0881C93.299 26.1682 92.1308 27.1162 90.7556 28.1909L88.259 30.1469L88.2389 31.3952L88.2256 32.6435H97.5714H106.917V31.4085V30.1736H104.574C102.191 30.1736 102.051 30.1602 101.864 29.9132C101.764 29.7864 101.75 29.4125 101.844 29.2457C101.877 29.1789 103.032 28.2443 104.414 27.1696L106.917 25.2069V23.9519V22.6969H97.5714H88.2256V23.9319Z" fill="#14469B"/>
<path d="M69.4338 38.024C68.0787 39.8798 66.9372 41.4419 66.9105 41.4953C66.8637 41.5754 66.9972 41.5888 67.7115 41.5888H68.566L71.0693 38.1709C72.4445 36.2951 73.586 34.733 73.5927 34.6996C73.6061 34.6729 73.2322 34.6462 72.7583 34.6462H71.9038L69.4338 38.024Z" fill="#14469B"/>
<path d="M73.0721 38.0574C71.7303 39.9333 70.6288 41.4953 70.6155 41.5287C70.6021 41.5621 71.8171 41.5888 73.6862 41.5888H76.7904L79.3204 38.1709C80.7089 36.2951 81.8638 34.733 81.8705 34.6996C81.8838 34.6729 80.4553 34.6462 78.6996 34.6462H75.5087L73.0721 38.0574Z" fill="#14469B"/>
</g>
<defs>
<clipPath id="clip0_2_50">
<rect width="140" height="50" fill="white"/>
</clipPath>
</defs>
</svg>
