<?xml version="1.0" standalone="no"?>
<!DOCTYPE svg PUBLIC "-//W3C//DTD SVG 20010904//EN"
 "http://www.w3.org/TR/2001/REC-SVG-20010904/DTD/svg10.dtd">
<svg version="1.0" xmlns="http://www.w3.org/2000/svg"
 width="290.000000pt" height="290.000000pt" viewBox="0 0 290.000000 290.000000"
 preserveAspectRatio="xMidYMid meet">
<metadata>
Created by potrace 1.14, written by Peter Selinger 2001-2017
</metadata>
<g transform="translate(0.000000,290.000000) scale(0.100000,-0.100000)"
fill="#000000" stroke="none">
<path d="M450 2790 c-8 -5 -36 -10 -62 -10 -27 0 -48 -4 -48 -10 0 -5 -15 -10
-32 -10 -26 0 -37 -6 -50 -31 -19 -33 -24 -89 -8 -89 6 0 10 -35 10 -86 0 -47
5 -95 12 -107 6 -12 13 -77 16 -144 3 -68 9 -123 13 -123 5 0 9 -27 9 -59 0
-76 6 -91 37 -91 16 0 27 -7 30 -20 4 -16 14 -20 44 -20 22 0 39 5 39 10 0 6
11 10 25 10 14 0 25 5 25 10 0 6 18 10 39 10 22 0 41 4 43 9 7 21 448 52 448
32 0 -7 24 -11 60 -11 33 0 60 -4 60 -10 0 -5 16 -10 35 -10 19 0 35 -4 35
-10 0 -5 16 -10 35 -10 19 0 35 -4 35 -10 0 -5 14 -10 30 -10 17 0 30 -4 30
-10 0 -5 7 -10 15 -10 8 0 15 -4 15 -10 0 -5 11 -10 25 -10 14 0 25 -4 25 -10
0 -5 11 -10 23 -10 13 0 34 -9 47 -20 13 -11 29 -20 36 -20 7 0 26 -11 41 -25
46 -41 52 -45 61 -45 5 0 20 -12 34 -27 30 -33 66 -63 74 -63 9 0 44 -41 44
-52 0 -4 18 -25 40 -47 22 -21 40 -48 40 -59 0 -11 13 -31 29 -45 16 -13 36
-38 45 -55 9 -18 20 -32 24 -32 8 0 32 -71 32 -97 1 -10 9 -36 20 -58 11 -22
19 -46 20 -54 0 -8 8 -23 18 -34 15 -17 17 -45 17 -266 0 -222 -2 -249 -18
-265 -9 -10 -17 -25 -17 -34 0 -11 -7 -6 -19 13 -18 31 -19 31 -82 24 -59 -6
-66 -4 -91 19 -16 14 -28 30 -28 35 0 5 -15 31 -34 57 -41 57 -39 92 5 112 16
7 29 18 29 24 0 6 11 21 25 34 28 27 33 65 9 74 -9 3 -42 6 -74 6 l-57 0 -7
37 c-12 71 -19 340 -9 346 5 3 8 20 5 37 -6 43 -34 39 -98 -16 -46 -38 -54
-42 -54 -25 0 11 5 23 10 26 15 9 12 19 -9 44 -11 13 -22 28 -23 33 -4 12
-246 -20 -388 -52 -47 -10 -107 -22 -135 -25 -27 -4 -86 -15 -130 -25 -44 -10
-129 -26 -189 -35 -100 -16 -110 -16 -118 -1 -5 9 -14 16 -21 17 -14 0 -117
122 -117 138 0 11 -58 77 -62 70 -18 -29 -28 -52 -28 -67 0 -10 -5 -23 -11
-29 -30 -30 -55 -302 -29 -318 6 -3 10 -15 10 -25 0 -10 6 -31 14 -47 8 -15
19 -46 26 -68 6 -22 26 -60 43 -85 35 -51 141 -160 156 -160 13 0 19 22 31
110 20 158 29 209 39 228 6 12 11 31 11 44 0 33 18 48 57 48 18 0 61 9 95 19
107 33 176 49 182 43 13 -13 4 -22 -21 -23 -27 -1 -27 -1 5 -10 26 -8 32 -14
27 -27 -4 -9 -7 -30 -6 -47 3 -54 -9 -87 -30 -82 -12 3 -19 0 -19 -9 0 -8 -4
-14 -10 -14 -5 0 -10 -16 -10 -35 0 -28 5 -36 23 -40 21 -6 22 -9 15 -83 -16
-177 -5 -155 -156 -317 -26 -28 -66 -71 -89 -97 -23 -25 -44 -44 -46 -42 -4 5
118 373 127 382 3 3 6 12 6 21 0 9 -7 3 -14 -14 -48 -103 -76 -168 -76 -179 0
-6 -4 -16 -9 -22 -4 -5 -23 -45 -41 -89 -17 -44 -35 -83 -39 -88 -6 -6 -5 209
2 315 1 20 -1 34 -5 32 -5 -3 -8 -22 -8 -42 0 -20 -4 -64 -10 -97 -5 -33 -10
-95 -12 -137 -2 -45 -7 -78 -13 -78 -6 0 -16 26 -23 57 -7 32 -16 74 -22 93
-5 19 -15 58 -22 87 -7 28 -16 54 -19 57 -8 8 28 -183 48 -258 10 -36 -15 -6
-60 72 -25 42 -54 93 -66 112 -11 19 -28 50 -37 68 -16 32 -39 55 -29 30 3 -7
43 -89 89 -183 46 -93 81 -173 79 -177 -2 -4 -15 -1 -29 8 -15 10 -24 12 -24
5 0 -6 -9 -20 -20 -31 -17 -17 -29 -19 -115 -13 -52 3 -95 3 -95 0 0 -3 34
-13 75 -22 41 -9 73 -21 70 -26 -4 -5 -53 -9 -111 -9 -143 0 -144 -1 -144
-105 l0 -85 45 0 c25 0 45 5 45 10 0 6 23 10 50 10 28 0 50 5 50 10 0 6 26 10
59 10 33 0 61 4 63 9 1 4 71 12 153 15 83 4 167 12 189 17 45 12 506 1 506
-12 0 -5 42 -9 93 -10 50 0 124 -5 162 -10 39 -6 98 -13 133 -16 34 -2 62 -9
62 -14 0 -5 23 -9 50 -9 28 0 50 -4 50 -9 0 -5 19 -11 43 -14 23 -3 62 -10 87
-17 25 -6 62 -14 83 -17 20 -3 37 -9 37 -14 0 -5 16 -9 35 -9 19 0 35 -4 35
-10 0 -5 5 -10 10 -10 6 0 10 11 10 25 0 14 16 41 40 67 22 24 40 51 40 61 0
9 7 17 15 17 8 0 15 9 15 20 0 11 5 20 10 20 6 0 10 9 10 20 0 19 7 20 105 20
63 0 105 -4 105 -10 0 -6 38 -10 95 -10 57 0 95 -4 95 -10 0 -5 16 -10 35 -10
19 0 35 5 35 10 0 6 7 10 15 10 9 0 18 12 22 30 3 17 9 30 14 30 5 0 9 16 9
35 0 19 5 35 10 35 6 0 10 18 10 40 0 22 5 40 10 40 6 0 10 20 10 45 0 34 -4
45 -15 45 -9 0 -25 9 -37 20 -12 11 -32 20 -45 20 -13 0 -23 5 -23 10 0 6 -9
10 -20 10 -11 0 -20 5 -20 10 0 6 -9 10 -20 10 -11 0 -20 5 -20 10 0 6 -9 10
-20 10 -11 0 -20 5 -20 10 0 6 -9 10 -20 10 -22 0 -102 30 -110 40 -3 4 -15
11 -28 14 -22 7 -22 9 -20 153 l3 146 30 18 c17 10 38 18 48 18 9 1 17 6 17
11 0 6 9 10 19 10 11 0 35 9 53 20 18 10 52 26 76 34 23 8 71 30 107 47 l65
33 0 58 c0 32 -4 58 -10 58 -5 0 -10 15 -10 34 0 19 -4 38 -10 41 -5 3 -10 17
-10 30 0 13 -4 27 -10 30 -5 3 -10 15 -10 26 0 42 -48 43 -360 9 -47 -5 -94
-8 -105 -5 -11 2 -23 4 -27 4 -4 1 -10 11 -14 23 -3 12 -16 31 -28 43 -13 12
-28 36 -35 54 -8 17 -17 31 -22 31 -5 0 -9 9 -9 20 0 11 -4 20 -10 20 -5 0
-10 18 -10 41 0 44 22 82 76 135 17 17 40 46 49 65 10 19 26 41 36 50 11 9 19
24 19 33 0 9 6 16 13 16 15 0 47 55 47 81 0 11 -6 27 -13 35 -27 33 -65 70
-90 89 -15 11 -30 28 -33 37 -3 10 -13 18 -22 18 -10 0 -24 9 -32 20 -15 21
-50 28 -50 10 0 -5 -7 -10 -16 -10 -9 0 -24 -8 -33 -18 -9 -9 -28 -23 -43 -30
-16 -6 -28 -16 -28 -22 0 -5 -8 -10 -18 -10 -11 0 -30 -9 -43 -20 -12 -12 -39
-31 -59 -42 -19 -12 -44 -32 -56 -44 -29 -30 -96 -54 -102 -36 -2 8 -23 22
-46 33 -64 30 -151 82 -171 103 -17 16 -17 25 -7 90 15 93 26 317 18 350 -3
14 -13 26 -21 26 -8 0 -15 5 -15 10 0 6 -16 10 -35 10 -19 0 -35 4 -35 9 0 5
-24 12 -52 15 -29 3 -71 8 -93 11 -35 6 -44 3 -70 -22 -27 -26 -41 -52 -91
-171 -8 -18 -14 -39 -14 -46 0 -7 -11 -25 -25 -40 -14 -15 -25 -34 -25 -42 0
-7 -4 -14 -10 -14 -5 0 -10 -7 -10 -16 0 -39 -21 -43 -184 -37 l-157 6 -6 29
c-3 17 -12 32 -19 35 -8 3 -14 14 -14 24 0 10 -4 19 -8 19 -4 0 -14 21 -21 48
-15 50 -39 104 -51 112 -12 8 -40 68 -40 85 0 8 -7 15 -15 15 -8 0 -15 5 -15
10 0 13 -90 13 -110 0z m5 -1322 c16 -36 -18 -98 -62 -112 -30 -10 -34 3 -21
73 11 59 12 61 42 61 23 0 34 -6 41 -22z m1029 -81 c14 -10 15 -18 7 -40 -6
-15 -17 -27 -25 -27 -8 0 -27 -11 -42 -25 -22 -20 -25 -30 -20 -56 3 -18 3
-94 0 -170 l-7 -137 -24 29 c-14 16 -33 29 -42 29 -11 0 -25 18 -39 53 -26 62
-26 67 -8 67 16 0 46 26 46 41 0 5 -17 9 -39 9 -38 0 -39 1 -44 43 -3 23 -4
67 -3 97 2 30 2 49 -1 43 -5 -15 -53 -18 -53 -4 0 5 19 14 43 20 23 7 47 14
53 17 6 3 16 -10 21 -28 l11 -33 1 31 c1 28 5 32 44 41 60 15 101 15 121 0z
m213 -363 c-31 -30 -53 -25 -81 16 -15 23 -34 40 -45 40 -25 0 -47 -28 -43
-54 3 -17 1 -18 -11 -8 -20 17 -70 -22 -62 -49 5 -15 1 -19 -15 -19 -20 0 -20
4 -18 137 l3 138 40 19 c22 10 50 29 62 42 12 13 26 24 32 24 5 0 23 11 39 25
17 14 43 32 59 40 l28 15 12 -178 c9 -135 9 -180 0 -188z m-1248 230 c6 -31 8
-60 5 -65 -3 -5 -23 -9 -44 -9 -37 0 -40 2 -45 34 -10 48 -3 69 25 83 40 21
47 16 59 -43z m91 -143 c19 -14 36 -26 37 -26 3 -1 -14 -118 -22 -151 -3 -12
-12 -25 -21 -28 -21 -8 -81 56 -89 95 -4 16 -10 31 -15 34 -10 6 -42 67 -37
71 12 12 93 41 102 37 5 -4 26 -18 45 -32z m638 -141 c6 -16 8 -31 5 -34 -4
-3 -1 -6 5 -6 7 0 12 -7 12 -15 0 -8 5 -24 11 -34 10 -14 8 -24 -9 -47 -12
-16 -30 -52 -40 -81 l-18 -52 -33 34 -33 35 26 0 c16 0 26 6 26 14 0 15 -21
26 -52 26 -18 0 -20 4 -14 38 3 20 6 63 6 94 l0 57 38 3 c51 4 59 1 70 -32z
m-246 -326 l-4 -91 -106 -45 c-59 -25 -109 -44 -110 -42 -2 1 47 63 109 138
63 74 114 134 114 133 1 -1 -1 -43 -3 -93z m44 -164 c21 0 24 -5 24 -35 l0
-36 -125 2 c-69 0 -127 5 -130 9 -3 5 23 22 57 39 35 17 81 42 103 55 l40 25
3 -30 c3 -23 8 -29 28 -29z"/>
</g>
</svg>
