<svg width="146" height="13" viewBox="0 0 146 13" fill="none" xmlns="http://www.w3.org/2000/svg">
<path d="M3.63636 9.95455V2.45455H4.90909V9.95455H3.63636ZM0.522727 6.84091V5.56818H8.02273V6.84091H0.522727ZM14.4957 12.1591C13.7457 12.1591 13.0772 12.0303 12.4901 11.7727C11.9067 11.5152 11.4427 11.1572 11.098 10.6989C10.7571 10.2367 10.5715 9.70076 10.5412 9.09091H11.973C12.0033 9.46591 12.1321 9.78977 12.3594 10.0625C12.5866 10.3314 12.884 10.5398 13.2514 10.6875C13.6188 10.8352 14.026 10.9091 14.473 10.9091C14.973 10.9091 15.4162 10.822 15.8026 10.6477C16.1889 10.4735 16.492 10.2311 16.7116 9.92045C16.9313 9.60985 17.0412 9.25 17.0412 8.84091C17.0412 8.41288 16.9351 8.03598 16.723 7.71023C16.5109 7.38068 16.2003 7.12311 15.7912 6.9375C15.3821 6.75189 14.8821 6.65909 14.2912 6.65909H13.3594V5.40909H14.2912C14.7533 5.40909 15.1586 5.32576 15.5071 5.15909C15.8594 4.99242 16.134 4.75758 16.331 4.45455C16.5317 4.15152 16.6321 3.79545 16.6321 3.38636C16.6321 2.99242 16.545 2.64962 16.3707 2.35795C16.1965 2.06629 15.9503 1.83901 15.6321 1.67614C15.3177 1.51326 14.9465 1.43182 14.5185 1.43182C14.117 1.43182 13.7382 1.50568 13.3821 1.65341C13.0298 1.79735 12.742 2.00758 12.5185 2.28409C12.295 2.55682 12.1738 2.88636 12.1548 3.27273H10.7912C10.8139 2.66288 10.9976 2.12879 11.3423 1.67045C11.687 1.20833 12.1378 0.848484 12.6946 0.590909C13.2552 0.333333 13.8707 0.204545 14.5412 0.204545C15.2609 0.204545 15.8783 0.350378 16.3935 0.642045C16.9086 0.929924 17.3045 1.31061 17.581 1.78409C17.8575 2.25758 17.9957 2.76894 17.9957 3.31818C17.9957 3.97348 17.8234 4.5322 17.4787 4.99432C17.1378 5.45644 16.6738 5.77652 16.0866 5.95455V6.04545C16.8215 6.16667 17.3954 6.47917 17.8082 6.98295C18.2211 7.48295 18.4276 8.10227 18.4276 8.84091C18.4276 9.47348 18.2552 10.0417 17.9105 10.5455C17.5696 11.0455 17.1037 11.4394 16.5128 11.7273C15.9219 12.0152 15.2495 12.1591 14.4957 12.1591ZM21.1151 12L26.3196 1.70455V1.61364H20.3196V0.363636H27.7741V1.68182L22.5923 12H21.1151ZM33.3722 12.1591C32.7055 12.1591 32.1051 12.0265 31.571 11.7614C31.0369 11.4962 30.6089 11.1326 30.2869 10.6705C29.965 10.2083 29.7888 9.68182 29.7585 9.09091H31.1222C31.1752 9.61742 31.4138 10.053 31.8381 10.3977C32.2661 10.7386 32.7775 10.9091 33.3722 10.9091C33.8494 10.9091 34.2737 10.7973 34.6449 10.5739C35.0199 10.3504 35.3134 10.0436 35.5256 9.65341C35.7415 9.25947 35.8494 8.81439 35.8494 8.31818C35.8494 7.81061 35.7377 7.35795 35.5142 6.96023C35.2945 6.55871 34.9915 6.24242 34.6051 6.01136C34.2188 5.7803 33.7775 5.66288 33.2812 5.65909C32.9252 5.6553 32.5597 5.71023 32.1847 5.82386C31.8097 5.93371 31.5009 6.07576 31.2585 6.25L29.9403 6.09091L30.6449 0.363636H36.6903V1.61364H31.8267L31.4176 5.04545H31.4858C31.7244 4.85606 32.0237 4.69886 32.3835 4.57386C32.7434 4.44886 33.1184 4.38636 33.5085 4.38636C34.2206 4.38636 34.8551 4.55682 35.4119 4.89773C35.9725 5.23485 36.4119 5.69697 36.7301 6.28409C37.0521 6.87121 37.2131 7.54167 37.2131 8.29545C37.2131 9.03788 37.0464 9.70076 36.7131 10.2841C36.3835 10.8636 35.929 11.322 35.3494 11.6591C34.7699 11.9924 34.1108 12.1591 33.3722 12.1591ZM47.902 12.1591C47.152 12.1591 46.4834 12.0303 45.8963 11.7727C45.313 11.5152 44.849 11.1572 44.5043 10.6989C44.1634 10.2367 43.9777 9.70076 43.9474 9.09091H45.3793C45.4096 9.46591 45.5384 9.78977 45.7656 10.0625C45.9929 10.3314 46.2902 10.5398 46.6577 10.6875C47.0251 10.8352 47.4323 10.9091 47.8793 10.9091C48.3793 10.9091 48.8224 10.822 49.2088 10.6477C49.5952 10.4735 49.8982 10.2311 50.1179 9.92045C50.3376 9.60985 50.4474 9.25 50.4474 8.84091C50.4474 8.41288 50.3414 8.03598 50.1293 7.71023C49.9171 7.38068 49.6065 7.12311 49.1974 6.9375C48.7884 6.75189 48.2884 6.65909 47.6974 6.65909H46.7656V5.40909H47.6974C48.1596 5.40909 48.5649 5.32576 48.9134 5.15909C49.2656 4.99242 49.5402 4.75758 49.7372 4.45455C49.938 4.15152 50.0384 3.79545 50.0384 3.38636C50.0384 2.99242 49.9512 2.64962 49.777 2.35795C49.6027 2.06629 49.3565 1.83901 49.0384 1.67614C48.724 1.51326 48.3527 1.43182 47.9247 1.43182C47.5232 1.43182 47.1444 1.50568 46.7884 1.65341C46.4361 1.79735 46.1482 2.00758 45.9247 2.28409C45.7012 2.55682 45.58 2.88636 45.5611 3.27273H44.1974C44.2202 2.66288 44.4039 2.12879 44.7486 1.67045C45.0933 1.20833 45.544 0.848484 46.1009 0.590909C46.6615 0.333333 47.277 0.204545 47.9474 0.204545C48.6671 0.204545 49.2846 0.350378 49.7997 0.642045C50.3149 0.929924 50.7107 1.31061 50.9872 1.78409C51.2637 2.25758 51.402 2.76894 51.402 3.31818C51.402 3.97348 51.2296 4.5322 50.8849 4.99432C50.544 5.45644 50.08 5.77652 49.4929 5.95455V6.04545C50.2277 6.16667 50.8016 6.47917 51.2145 6.98295C51.6274 7.48295 51.8338 8.10227 51.8338 8.84091C51.8338 9.47348 51.6615 10.0417 51.3168 10.5455C50.9759 11.0455 50.5099 11.4394 49.919 11.7273C49.3281 12.0152 48.6558 12.1591 47.902 12.1591ZM58.0895 12.1591C57.3395 12.1591 56.6709 12.0303 56.0838 11.7727C55.5005 11.5152 55.0365 11.1572 54.6918 10.6989C54.3509 10.2367 54.1652 9.70076 54.1349 9.09091H55.5668C55.5971 9.46591 55.7259 9.78977 55.9531 10.0625C56.1804 10.3314 56.4777 10.5398 56.8452 10.6875C57.2126 10.8352 57.6198 10.9091 58.0668 10.9091C58.5668 10.9091 59.0099 10.822 59.3963 10.6477C59.7827 10.4735 60.0857 10.2311 60.3054 9.92045C60.5251 9.60985 60.6349 9.25 60.6349 8.84091C60.6349 8.41288 60.5289 8.03598 60.3168 7.71023C60.1046 7.38068 59.794 7.12311 59.3849 6.9375C58.9759 6.75189 58.4759 6.65909 57.8849 6.65909H56.9531V5.40909H57.8849C58.3471 5.40909 58.7524 5.32576 59.1009 5.15909C59.4531 4.99242 59.7277 4.75758 59.9247 4.45455C60.1255 4.15152 60.2259 3.79545 60.2259 3.38636C60.2259 2.99242 60.1387 2.64962 59.9645 2.35795C59.7902 2.06629 59.544 1.83901 59.2259 1.67614C58.9115 1.51326 58.5402 1.43182 58.1122 1.43182C57.7107 1.43182 57.3319 1.50568 56.9759 1.65341C56.6236 1.79735 56.3357 2.00758 56.1122 2.28409C55.8887 2.55682 55.7675 2.88636 55.7486 3.27273H54.3849C54.4077 2.66288 54.5914 2.12879 54.9361 1.67045C55.2808 1.20833 55.7315 0.848484 56.2884 0.590909C56.849 0.333333 57.4645 0.204545 58.1349 0.204545C58.8546 0.204545 59.4721 0.350378 59.9872 0.642045C60.5024 0.929924 60.8982 1.31061 61.1747 1.78409C61.4512 2.25758 61.5895 2.76894 61.5895 3.31818C61.5895 3.97348 61.4171 4.5322 61.0724 4.99432C60.7315 5.45644 60.2675 5.77652 59.6804 5.95455V6.04545C60.4152 6.16667 60.9891 6.47917 61.402 6.98295C61.8149 7.48295 62.0213 8.10227 62.0213 8.84091C62.0213 9.47348 61.849 10.0417 61.5043 10.5455C61.1634 11.0455 60.6974 11.4394 60.1065 11.7273C59.5156 12.0152 58.8433 12.1591 58.0895 12.1591ZM72.7088 12.1591C72.2315 12.1515 71.7543 12.0606 71.277 11.8864C70.7997 11.7121 70.3641 11.4186 69.9702 11.0057C69.5762 10.589 69.2599 10.0265 69.0213 9.31818C68.7827 8.60606 68.6634 7.71212 68.6634 6.63636C68.6634 5.60606 68.7599 4.69318 68.9531 3.89773C69.1463 3.09848 69.4266 2.42614 69.794 1.88068C70.1615 1.33144 70.6046 0.914772 71.1236 0.630681C71.6463 0.34659 72.2353 0.204545 72.8906 0.204545C73.5421 0.204545 74.1217 0.335227 74.6293 0.596591C75.1406 0.854166 75.5573 1.21401 75.8793 1.67614C76.2012 2.13826 76.4096 2.67045 76.5043 3.27273H75.1179C74.9891 2.75 74.7391 2.31629 74.3679 1.97159C73.9967 1.62689 73.5043 1.45455 72.8906 1.45455C71.9891 1.45455 71.2789 1.84659 70.7599 2.63068C70.2448 3.41477 69.9853 4.51515 69.9815 5.93182H70.0724C70.2846 5.60985 70.5365 5.33523 70.8281 5.10795C71.1236 4.87689 71.4493 4.69886 71.8054 4.57386C72.1615 4.44886 72.5384 4.38636 72.9361 4.38636C73.6027 4.38636 74.2126 4.55303 74.7656 4.88636C75.3187 5.21591 75.7618 5.67235 76.0952 6.25568C76.4285 6.83523 76.5952 7.5 76.5952 8.25C76.5952 8.9697 76.4342 9.62879 76.1122 10.2273C75.7902 10.822 75.3376 11.2955 74.7543 11.6477C74.1747 11.9962 73.4929 12.1667 72.7088 12.1591ZM72.7088 10.9091C73.1861 10.9091 73.6141 10.7898 73.9929 10.5511C74.3755 10.3125 74.6766 9.99242 74.8963 9.59091C75.1198 9.18939 75.2315 8.74242 75.2315 8.25C75.2315 7.76894 75.1236 7.33144 74.9077 6.9375C74.6955 6.53977 74.402 6.22348 74.027 5.98864C73.6558 5.75379 73.2315 5.63636 72.7543 5.63636C72.3944 5.63636 72.0592 5.70833 71.7486 5.85227C71.438 5.99242 71.1652 6.18561 70.9304 6.43182C70.6993 6.67803 70.5175 6.96023 70.3849 7.27841C70.2524 7.5928 70.1861 7.92424 70.1861 8.27273C70.1861 8.73485 70.294 9.16667 70.5099 9.56818C70.7296 9.9697 71.0289 10.2936 71.4077 10.5398C71.7902 10.786 72.224 10.9091 72.7088 10.9091ZM82.6932 12.1591C82.2159 12.1515 81.7386 12.0606 81.2614 11.8864C80.7841 11.7121 80.3485 11.4186 79.9545 11.0057C79.5606 10.589 79.2443 10.0265 79.0057 9.31818C78.767 8.60606 78.6477 7.71212 78.6477 6.63636C78.6477 5.60606 78.7443 4.69318 78.9375 3.89773C79.1307 3.09848 79.411 2.42614 79.7784 1.88068C80.1458 1.33144 80.589 0.914772 81.108 0.630681C81.6307 0.34659 82.2197 0.204545 82.875 0.204545C83.5265 0.204545 84.1061 0.335227 84.6136 0.596591C85.125 0.854166 85.5417 1.21401 85.8636 1.67614C86.1856 2.13826 86.3939 2.67045 86.4886 3.27273H85.1023C84.9735 2.75 84.7235 2.31629 84.3523 1.97159C83.9811 1.62689 83.4886 1.45455 82.875 1.45455C81.9735 1.45455 81.2633 1.84659 80.7443 2.63068C80.2292 3.41477 79.9697 4.51515 79.9659 5.93182H80.0568C80.2689 5.60985 80.5208 5.33523 80.8125 5.10795C81.108 4.87689 81.4337 4.69886 81.7898 4.57386C82.1458 4.44886 82.5227 4.38636 82.9205 4.38636C83.5871 4.38636 84.197 4.55303 84.75 4.88636C85.303 5.21591 85.7462 5.67235 86.0795 6.25568C86.4129 6.83523 86.5795 7.5 86.5795 8.25C86.5795 8.9697 86.4186 9.62879 86.0966 10.2273C85.7746 10.822 85.322 11.2955 84.7386 11.6477C84.1591 11.9962 83.4773 12.1667 82.6932 12.1591ZM82.6932 10.9091C83.1705 10.9091 83.5985 10.7898 83.9773 10.5511C84.3598 10.3125 84.661 9.99242 84.8807 9.59091C85.1042 9.18939 85.2159 8.74242 85.2159 8.25C85.2159 7.76894 85.108 7.33144 84.892 6.9375C84.6799 6.53977 84.3864 6.22348 84.0114 5.98864C83.6402 5.75379 83.2159 5.63636 82.7386 5.63636C82.3788 5.63636 82.0436 5.70833 81.733 5.85227C81.4223 5.99242 81.1496 6.18561 80.9148 6.43182C80.6837 6.67803 80.5019 6.96023 80.3693 7.27841C80.2367 7.5928 80.1705 7.92424 80.1705 8.27273C80.1705 8.73485 80.2784 9.16667 80.4943 9.56818C80.714 9.9697 81.0133 10.2936 81.392 10.5398C81.7746 10.786 82.2083 10.9091 82.6932 10.9091ZM92.5185 0.204545C92.9957 0.208333 93.473 0.299242 93.9503 0.477272C94.4276 0.655303 94.8632 0.950757 95.2571 1.36364C95.651 1.77273 95.9673 2.33144 96.206 3.03977C96.4446 3.74811 96.5639 4.63636 96.5639 5.70455C96.5639 6.73864 96.4654 7.6572 96.2685 8.46023C96.0753 9.25947 95.795 9.93371 95.4276 10.483C95.0639 11.0322 94.6207 11.4489 94.098 11.733C93.5791 12.017 92.992 12.1591 92.3366 12.1591C91.6851 12.1591 91.1037 12.0303 90.5923 11.7727C90.0848 11.5114 89.6681 11.1496 89.3423 10.6875C89.0204 10.2216 88.8139 9.68182 88.723 9.06818H90.1094C90.2344 9.60227 90.4825 10.0436 90.8537 10.392C91.2287 10.7367 91.723 10.9091 92.3366 10.9091C93.2344 10.9091 93.9427 10.517 94.4616 9.73295C94.9844 8.94886 95.2457 7.84091 95.2457 6.40909H95.1548C94.9427 6.72727 94.6908 7.00189 94.3991 7.23295C94.1075 7.46402 93.7836 7.64205 93.4276 7.76705C93.0715 7.89205 92.6927 7.95455 92.2912 7.95455C91.6245 7.95455 91.0128 7.78977 90.456 7.46023C89.9029 7.12689 89.4598 6.67045 89.1264 6.09091C88.7969 5.50758 88.6321 4.84091 88.6321 4.09091C88.6321 3.37879 88.7912 2.72727 89.1094 2.13636C89.4313 1.54167 89.8821 1.06818 90.4616 0.715909C91.045 0.363636 91.7306 0.193182 92.5185 0.204545ZM92.5185 1.45455C92.0412 1.45455 91.6113 1.57386 91.2287 1.8125C90.8499 2.04735 90.5488 2.36553 90.3253 2.76705C90.1056 3.16477 89.9957 3.60606 89.9957 4.09091C89.9957 4.57576 90.1018 5.01705 90.3139 5.41477C90.5298 5.80871 90.8234 6.12311 91.1946 6.35795C91.5696 6.58902 91.9957 6.70455 92.473 6.70455C92.8329 6.70455 93.1681 6.63447 93.4787 6.49432C93.7893 6.35038 94.0601 6.1553 94.2912 5.90909C94.526 5.65909 94.7098 5.37689 94.8423 5.0625C94.9749 4.74432 95.0412 4.41288 95.0412 4.06818C95.0412 3.61364 94.9313 3.1875 94.7116 2.78977C94.4957 2.39205 94.1965 2.07008 93.8139 1.82386C93.4351 1.57765 93.0033 1.45455 92.5185 1.45455ZM107.094 12.1591C106.238 12.1591 105.509 11.9261 104.906 11.4602C104.304 10.9905 103.844 10.3106 103.526 9.42045C103.207 8.52652 103.048 7.44697 103.048 6.18182C103.048 4.92424 103.207 3.85038 103.526 2.96023C103.848 2.06629 104.31 1.38447 104.912 0.914772C105.518 0.441287 106.245 0.204545 107.094 0.204545C107.942 0.204545 108.668 0.441287 109.27 0.914772C109.876 1.38447 110.338 2.06629 110.656 2.96023C110.978 3.85038 111.139 4.92424 111.139 6.18182C111.139 7.44697 110.98 8.52652 110.662 9.42045C110.344 10.3106 109.884 10.9905 109.281 11.4602C108.679 11.9261 107.95 12.1591 107.094 12.1591ZM107.094 10.9091C107.942 10.9091 108.601 10.5 109.071 9.68182C109.541 8.86364 109.776 7.69697 109.776 6.18182C109.776 5.17424 109.668 4.31629 109.452 3.60795C109.24 2.89962 108.933 2.35985 108.531 1.98864C108.134 1.61742 107.654 1.43182 107.094 1.43182C106.253 1.43182 105.596 1.84659 105.122 2.67614C104.649 3.50189 104.412 4.67045 104.412 6.18182C104.412 7.18939 104.518 8.04545 104.73 8.75C104.942 9.45455 105.247 9.99053 105.645 10.358C106.046 10.7254 106.529 10.9091 107.094 10.9091ZM117.003 0.204545C117.48 0.208333 117.957 0.299242 118.435 0.477272C118.912 0.655303 119.348 0.950757 119.741 1.36364C120.135 1.77273 120.452 2.33144 120.69 3.03977C120.929 3.74811 121.048 4.63636 121.048 5.70455C121.048 6.73864 120.95 7.6572 120.753 8.46023C120.56 9.25947 120.279 9.93371 119.912 10.483C119.548 11.0322 119.105 11.4489 118.582 11.733C118.063 12.017 117.476 12.1591 116.821 12.1591C116.17 12.1591 115.588 12.0303 115.077 11.7727C114.569 11.5114 114.152 11.1496 113.827 10.6875C113.505 10.2216 113.298 9.68182 113.207 9.06818H114.594C114.719 9.60227 114.967 10.0436 115.338 10.392C115.713 10.7367 116.207 10.9091 116.821 10.9091C117.719 10.9091 118.427 10.517 118.946 9.73295C119.469 8.94886 119.73 7.84091 119.73 6.40909H119.639C119.427 6.72727 119.175 7.00189 118.884 7.23295C118.592 7.46402 118.268 7.64205 117.912 7.76705C117.556 7.89205 117.177 7.95455 116.776 7.95455C116.109 7.95455 115.497 7.78977 114.94 7.46023C114.387 7.12689 113.944 6.67045 113.611 6.09091C113.281 5.50758 113.116 4.84091 113.116 4.09091C113.116 3.37879 113.276 2.72727 113.594 2.13636C113.916 1.54167 114.366 1.06818 114.946 0.715909C115.529 0.363636 116.215 0.193182 117.003 0.204545ZM117.003 1.45455C116.526 1.45455 116.096 1.57386 115.713 1.8125C115.334 2.04735 115.033 2.36553 114.81 2.76705C114.59 3.16477 114.48 3.60606 114.48 4.09091C114.48 4.57576 114.586 5.01705 114.798 5.41477C115.014 5.80871 115.308 6.12311 115.679 6.35795C116.054 6.58902 116.48 6.70455 116.957 6.70455C117.317 6.70455 117.652 6.63447 117.963 6.49432C118.274 6.35038 118.545 6.1553 118.776 5.90909C119.01 5.65909 119.194 5.37689 119.327 5.0625C119.459 4.74432 119.526 4.41288 119.526 4.06818C119.526 3.61364 119.416 3.1875 119.196 2.78977C118.98 2.39205 118.681 2.07008 118.298 1.82386C117.92 1.57765 117.488 1.45455 117.003 1.45455ZM131.646 12.1591C131.169 12.1515 130.692 12.0606 130.214 11.8864C129.737 11.7121 129.302 11.4186 128.908 11.0057C128.514 10.589 128.197 10.0265 127.959 9.31818C127.72 8.60606 127.601 7.71212 127.601 6.63636C127.601 5.60606 127.697 4.69318 127.891 3.89773C128.084 3.09848 128.364 2.42614 128.732 1.88068C129.099 1.33144 129.542 0.914772 130.061 0.630681C130.584 0.34659 131.173 0.204545 131.828 0.204545C132.48 0.204545 133.059 0.335227 133.567 0.596591C134.078 0.854166 134.495 1.21401 134.817 1.67614C135.139 2.13826 135.347 2.67045 135.442 3.27273H134.055C133.927 2.75 133.677 2.31629 133.305 1.97159C132.934 1.62689 132.442 1.45455 131.828 1.45455C130.927 1.45455 130.216 1.84659 129.697 2.63068C129.182 3.41477 128.923 4.51515 128.919 5.93182H129.01C129.222 5.60985 129.474 5.33523 129.766 5.10795C130.061 4.87689 130.387 4.69886 130.743 4.57386C131.099 4.44886 131.476 4.38636 131.874 4.38636C132.54 4.38636 133.15 4.55303 133.703 4.88636C134.256 5.21591 134.699 5.67235 135.033 6.25568C135.366 6.83523 135.533 7.5 135.533 8.25C135.533 8.9697 135.372 9.62879 135.05 10.2273C134.728 10.822 134.275 11.2955 133.692 11.6477C133.112 11.9962 132.43 12.1667 131.646 12.1591ZM131.646 10.9091C132.124 10.9091 132.552 10.7898 132.93 10.5511C133.313 10.3125 133.614 9.99242 133.834 9.59091C134.057 9.18939 134.169 8.74242 134.169 8.25C134.169 7.76894 134.061 7.33144 133.845 6.9375C133.633 6.53977 133.339 6.22348 132.964 5.98864C132.593 5.75379 132.169 5.63636 131.692 5.63636C131.332 5.63636 130.997 5.70833 130.686 5.85227C130.375 5.99242 130.103 6.18561 129.868 6.43182C129.637 6.67803 129.455 6.96023 129.322 7.27841C129.19 7.5928 129.124 7.92424 129.124 8.27273C129.124 8.73485 129.232 9.16667 129.447 9.56818C129.667 9.9697 129.966 10.2936 130.345 10.5398C130.728 10.786 131.161 10.9091 131.646 10.9091ZM141.403 12.1591C140.737 12.1591 140.136 12.0265 139.602 11.7614C139.068 11.4962 138.64 11.1326 138.318 10.6705C137.996 10.2083 137.82 9.68182 137.79 9.09091H139.153C139.206 9.61742 139.445 10.053 139.869 10.3977C140.297 10.7386 140.809 10.9091 141.403 10.9091C141.881 10.9091 142.305 10.7973 142.676 10.5739C143.051 10.3504 143.345 10.0436 143.557 9.65341C143.773 9.25947 143.881 8.81439 143.881 8.31818C143.881 7.81061 143.769 7.35795 143.545 6.96023C143.326 6.55871 143.023 6.24242 142.636 6.01136C142.25 5.7803 141.809 5.66288 141.312 5.65909C140.956 5.6553 140.591 5.71023 140.216 5.82386C139.841 5.93371 139.532 6.07576 139.29 6.25L137.972 6.09091L138.676 0.363636H144.722V1.61364H139.858L139.449 5.04545H139.517C139.756 4.85606 140.055 4.69886 140.415 4.57386C140.775 4.44886 141.15 4.38636 141.54 4.38636C142.252 4.38636 142.886 4.55682 143.443 4.89773C144.004 5.23485 144.443 5.69697 144.761 6.28409C145.083 6.87121 145.244 7.54167 145.244 8.29545C145.244 9.03788 145.078 9.70076 144.744 10.2841C144.415 10.8636 143.96 11.322 143.381 11.6591C142.801 11.9924 142.142 12.1591 141.403 12.1591Z" fill="#F1CDB3"/>
</svg>
