<svg id="svg" version="1.1" xmlns="http://www.w3.org/2000/svg" xmlns:xlink="http://www.w3.org/1999/xlink" width="400" height="400" viewBox="0, 0, 400,400"><g id="svgg"><path id="path0" d="M285.236 118.293 C 284.312 119.369,281.802 122.275,279.660 124.750 C 274.280 130.964,264.355 142.433,255.428 152.750 C 236.873 174.196,232.997 178.652,232.791 178.780 C 232.670 178.855,232.172 179.550,231.685 180.323 C 230.126 182.801,228.843 184.358,226.251 186.917 C 224.858 188.292,222.785 190.504,221.644 191.833 C 219.352 194.502,187.213 231.766,183.756 235.762 C 169.696 252.014,159.889 263.427,159.770 263.677 C 159.652 263.924,160.129 264.664,162.207 267.450 C 177.785 288.344,186.861 305.392,191.514 322.500 C 194.184 332.314,196.694 336.381,200.083 336.381 C 203.375 336.381,205.784 332.612,208.412 323.350 C 215.563 298.146,231.010 273.720,260.024 241.736 C 280.823 218.809,293.678 193.092,295.926 169.917 C 296.283 166.243,296.182 151.819,295.771 147.583 C 294.892 138.544,292.904 130.217,289.781 122.500 C 288.906 120.335,287.080 116.332,286.970 116.335 C 286.941 116.335,286.160 117.217,285.236 118.293 " stroke="none" fill="#34a454" fill-rule="evenodd"></path><path id="path1" d="M195.167 63.929 C 194.846 63.964,193.458 64.074,192.083 64.174 C 171.735 65.651,151.423 74.027,136.000 87.302 C 132.534 90.286,126.235 96.632,126.366 97.008 C 126.394 97.087,128.329 98.707,130.667 100.607 C 134.717 103.899,136.959 105.723,147.250 114.100 C 149.725 116.115,156.142 121.336,161.510 125.702 C 166.878 130.068,171.369 133.758,171.489 133.904 C 171.682 134.136,171.900 133.984,173.316 132.625 C 179.401 126.786,186.044 123.198,193.273 121.845 C 224.657 115.971,248.655 149.208,233.400 177.421 C 232.160 179.714,230.172 181.940,255.428 152.750 C 259.552 147.983,265.847 140.708,269.417 136.583 C 279.874 124.499,283.146 120.717,285.131 118.422 C 286.159 117.233,287.000 116.157,287.000 116.031 C 287.000 115.736,285.739 113.232,285.310 112.676 C 284.827 112.050,284.242 111.183,283.730 110.333 C 283.481 109.921,283.152 109.433,282.997 109.250 C 282.842 109.067,282.574 108.553,282.400 108.109 C 282.203 107.607,281.941 107.245,281.708 107.154 C 281.502 107.074,281.333 106.896,281.333 106.760 C 281.333 106.255,280.771 105.333,280.463 105.333 C 280.259 105.333,280.052 105.093,279.850 104.623 C 279.683 104.232,279.423 103.810,279.273 103.686 C 279.123 103.561,279.000 103.341,279.000 103.197 C 279.000 103.053,278.795 102.721,278.545 102.460 C 278.295 102.199,277.939 101.670,277.753 101.284 C 277.505 100.767,277.224 100.491,276.682 100.231 C 276.168 99.984,275.849 99.683,275.621 99.231 C 275.442 98.875,275.162 98.433,275.000 98.250 C 274.838 98.067,274.583 97.674,274.433 97.377 C 274.277 97.068,273.879 96.693,273.505 96.502 C 273.043 96.267,272.755 95.959,272.528 95.459 C 272.131 94.583,267.610 90.088,266.458 89.425 C 265.959 89.137,265.667 88.853,265.667 88.657 C 265.667 88.215,264.713 87.183,264.190 87.059 C 263.948 87.002,263.144 86.384,262.403 85.686 C 261.128 84.484,259.474 83.348,257.859 82.566 C 257.383 82.335,257.010 81.992,256.771 81.566 C 256.505 81.090,256.091 80.739,255.216 80.250 C 253.504 79.292,252.485 78.659,251.946 78.219 C 251.686 78.007,251.339 77.833,251.174 77.833 C 251.009 77.833,250.776 77.715,250.656 77.570 C 250.536 77.426,250.095 77.130,249.677 76.913 C 249.259 76.696,248.579 76.289,248.167 76.010 C 247.754 75.730,247.243 75.501,247.031 75.501 C 246.567 75.500,246.115 75.272,245.330 74.643 C 245.007 74.384,244.373 74.046,243.921 73.892 C 243.468 73.738,242.774 73.365,242.378 73.063 C 241.983 72.761,241.380 72.463,241.038 72.401 C 240.696 72.338,239.912 72.035,239.296 71.727 C 238.679 71.419,237.921 71.167,237.610 71.167 C 237.299 71.167,236.866 71.027,236.647 70.857 C 235.952 70.315,235.201 70.000,234.604 70.000 C 234.269 70.000,233.443 69.719,232.646 69.333 C 231.888 68.967,231.039 68.666,230.759 68.666 C 230.479 68.666,229.387 68.399,228.333 68.074 C 222.336 66.222,215.891 64.936,209.097 64.235 C 206.763 63.994,196.613 63.771,195.167 63.929 " stroke="none" fill="#327cf8" fill-rule="evenodd"></path><path id="path2" d="M124.181 98.907 C 114.892 110.551,108.525 124.216,105.680 138.610 C 103.177 151.278,103.208 168.746,105.754 180.176 C 107.271 186.990,112.191 200.914,113.759 202.833 C 113.872 202.971,114.319 203.796,114.753 204.667 C 116.803 208.777,120.676 215.400,123.946 220.387 C 129.607 229.021,134.852 235.896,140.267 241.782 C 148.311 250.525,152.150 254.863,156.640 260.283 L 159.567 263.815 160.158 263.121 C 160.735 262.443,178.594 241.738,183.479 236.083 C 187.331 231.625,219.343 194.512,221.576 191.917 C 224.246 188.813,224.262 188.789,222.917 189.857 C 207.439 202.143,183.203 199.095,170.384 183.250 C 162.069 172.971,159.690 158.860,164.176 146.421 C 165.055 143.983,168.555 138.135,170.804 135.348 C 171.279 134.760,171.667 134.231,171.667 134.172 C 171.667 133.982,170.652 133.111,166.583 129.811 C 162.127 126.196,149.821 116.192,142.417 110.166 C 139.758 108.002,135.146 104.258,132.167 101.845 C 129.188 99.433,126.625 97.318,126.473 97.146 C 126.029 96.644,125.918 96.729,124.181 98.907 M275.742 99.281 C 275.994 99.804,276.289 100.100,276.424 99.965 C 276.462 99.927,276.267 99.638,275.990 99.323 L 275.486 98.750 275.742 99.281 " stroke="none" fill="#f58818" fill-rule="evenodd"></path><path id="path3" d="M192.250 9.937 C 186.861 10.261,182.996 10.520,182.583 10.585 C 182.308 10.629,180.921 10.779,179.500 10.919 C 176.780 11.188,174.708 11.456,171.000 12.019 C 167.043 12.621,165.303 12.938,159.667 14.087 C 147.367 16.594,132.393 21.627,119.672 27.528 C 60.092 55.168,18.317 112.928,11.085 177.667 C 10.947 178.904,10.759 180.554,10.668 181.333 C 8.805 197.214,9.902 219.955,13.364 237.250 C 14.364 242.247,14.450 242.631,15.511 246.885 C 33.106 317.438,91.303 372.845,162.417 386.746 C 163.608 386.979,164.979 387.250,165.463 387.348 C 166.944 387.648,172.571 388.520,175.083 388.840 C 175.817 388.933,176.979 389.082,177.667 389.171 C 179.082 389.354,183.379 389.758,186.531 390.004 C 192.850 390.498,207.364 390.497,213.641 390.003 C 217.042 389.735,221.376 389.337,221.917 389.243 C 222.192 389.195,223.317 389.048,224.417 388.917 C 232.750 387.920,241.852 386.102,251.000 383.607 C 320.603 364.624,374.201 306.132,387.248 234.917 C 388.573 227.684,389.193 222.757,390.038 212.750 C 390.305 209.588,390.304 190.728,390.037 187.583 C 389.399 180.075,389.208 178.291,388.433 172.583 C 387.973 169.198,386.815 162.761,386.080 159.500 C 385.358 156.298,385.107 155.238,384.642 153.417 C 384.361 152.317,384.067 151.151,383.989 150.826 C 381.217 139.283,373.936 121.049,367.287 109.000 C 346.814 71.902,316.928 44.260,277.917 26.341 C 261.510 18.805,239.230 12.750,221.500 11.008 C 220.537 10.914,219.075 10.759,218.250 10.664 C 213.200 10.086,197.215 9.639,192.250 9.937 M209.097 64.235 C 215.891 64.936,222.336 66.222,228.333 68.074 C 229.387 68.399,230.479 68.666,230.759 68.666 C 231.039 68.666,231.888 68.967,232.646 69.333 C 233.443 69.719,234.269 70.000,234.604 70.000 C 235.201 70.000,235.952 70.315,236.647 70.857 C 236.866 71.027,237.299 71.167,237.610 71.167 C 237.921 71.167,238.679 71.419,239.296 71.727 C 239.912 72.035,240.696 72.338,241.038 72.401 C 241.380 72.463,241.983 72.761,242.378 73.063 C 242.774 73.365,243.468 73.738,243.921 73.892 C 244.373 74.046,245.007 74.384,245.330 74.643 C 246.115 75.272,246.567 75.500,247.031 75.501 C 247.243 75.501,247.754 75.730,248.167 76.010 C 248.579 76.289,249.259 76.696,249.677 76.913 C 250.095 77.130,250.536 77.426,250.656 77.570 C 250.776 77.715,251.003 77.833,251.160 77.833 C 251.318 77.833,251.702 78.023,252.015 78.254 C 253.034 79.008,254.397 79.859,255.381 80.356 C 255.931 80.635,256.472 81.053,256.642 81.332 C 257.011 81.940,257.337 82.187,259.406 83.425 C 260.356 83.994,261.635 84.958,262.406 85.686 C 263.145 86.384,263.948 87.002,264.191 87.060 C 264.433 87.117,264.846 87.436,265.108 87.769 C 265.369 88.102,265.948 88.721,266.393 89.145 C 267.310 90.019,272.050 94.781,273.376 96.160 C 273.856 96.660,274.390 97.298,274.562 97.577 C 274.733 97.855,275.188 98.422,275.573 98.835 C 275.957 99.249,276.342 99.701,276.428 99.839 C 276.513 99.978,276.794 100.226,277.052 100.390 C 277.310 100.554,277.657 101.002,277.824 101.386 C 277.990 101.769,278.323 102.265,278.563 102.487 C 278.803 102.710,279.000 102.977,279.000 103.081 C 279.000 103.319,280.487 105.333,280.663 105.333 C 280.734 105.333,280.955 105.712,281.154 106.175 C 281.354 106.638,281.621 107.057,281.749 107.106 C 281.877 107.155,282.209 107.658,282.487 108.223 C 282.765 108.788,283.293 109.700,283.661 110.250 C 284.028 110.800,284.461 111.466,284.623 111.729 C 284.784 111.993,285.078 112.407,285.275 112.650 C 285.720 113.199,287.000 115.716,287.000 116.043 C 287.000 116.176,287.421 117.177,287.936 118.267 C 292.123 127.142,294.734 136.912,295.771 147.583 C 296.182 151.819,296.283 166.243,295.926 169.917 C 293.678 193.092,280.823 218.809,260.024 241.736 C 231.010 273.720,215.563 298.146,208.412 323.350 C 205.784 332.612,203.375 336.381,200.083 336.381 C 196.694 336.381,194.184 332.314,191.514 322.500 C 186.828 305.272,177.980 288.690,161.944 267.083 C 156.904 260.292,151.584 254.082,140.267 241.782 C 131.406 232.151,120.672 216.536,114.753 204.667 C 114.319 203.796,113.872 202.971,113.759 202.833 C 112.191 200.914,107.271 186.990,105.754 180.176 C 103.208 168.746,103.177 151.278,105.680 138.610 C 108.198 125.868,113.440 113.768,121.128 102.949 C 123.191 100.046,125.772 96.867,126.116 96.804 C 126.281 96.775,127.336 95.762,128.459 94.555 C 144.757 77.040,168.048 65.918,192.083 64.174 C 193.458 64.074,194.846 63.964,195.167 63.929 C 196.613 63.771,206.763 63.994,209.097 64.235 M196.500 121.355 C 185.384 122.485,174.791 128.990,168.581 138.500 C 163.332 146.537,162.081 150.582,162.086 159.500 C 162.098 181.757,180.343 198.616,203.000 197.307 C 227.960 195.865,244.802 169.134,235.592 145.580 C 229.306 129.501,213.389 119.638,196.500 121.355 " stroke="none" fill="#fbfbfb" fill-rule="evenodd"></path></g></svg>