<svg width="23" height="33" viewBox="0 0 23 33" fill="none" xmlns="http://www.w3.org/2000/svg">
<path fill-rule="evenodd" clip-rule="evenodd" d="M15.0015 1.0605C13.0505 3.3393 11.1078 5.61095 9.17349 7.8755C8.81342 8.13452 8.46873 8.41652 8.13949 8.7215C6.37032 7.28156 4.59997 5.84026 2.82849 4.3975C4.60998 2.38599 6.83463 1.14049 9.50249 0.661001C11.3691 0.362363 13.2021 0.495561 15.0015 1.0605Z" fill="#1A71EE"/>
<path fill-rule="evenodd" clip-rule="evenodd" d="M15.0015 1.06051C15.0813 1.05299 15.1597 1.06079 15.2365 1.08401C16.2469 1.44036 17.2025 1.91036 18.1035 2.49401C18.139 2.56507 18.186 2.62777 18.2445 2.68201C18.553 2.83457 18.835 3.02257 19.0905 3.24601C19.1559 3.30104 19.1951 3.37154 19.208 3.45751C19.2747 3.50263 19.3452 3.54178 19.4195 3.57501C19.8148 4.01615 20.2143 4.447 20.618 4.86751C20.9142 5.32087 21.2119 5.77522 21.511 6.23051C21.5928 6.36253 21.6476 6.50353 21.6755 6.65351C19.5747 9.08303 17.4754 11.5114 15.3775 13.9385C16.3849 11.9116 16.1186 10.0707 14.5785 8.41601C13.1022 7.14832 11.4572 6.88197 9.64346 7.61701C9.49198 7.71392 9.33528 7.80012 9.17346 7.87551C11.1078 5.61095 13.0505 3.3393 15.0015 1.06051Z" fill="#4586F9"/>
<path fill-rule="evenodd" clip-rule="evenodd" d="M2.82852 4.39752C4.59999 5.84028 6.37034 7.28158 8.13952 8.72152C7.84981 9.1128 7.58346 9.52015 7.34052 9.94352C5.35223 12.2296 3.36253 14.517 1.37152 16.8055C0.0698505 14.0701 -0.172952 11.2344 0.643015 8.29852C1.08444 6.89834 1.75809 5.62934 2.66402 4.49152C2.70237 4.42934 2.75722 4.39804 2.82852 4.39752Z" fill="#ED4131"/>
<path fill-rule="evenodd" clip-rule="evenodd" d="M21.6755 6.6535C22.2715 7.81624 22.624 9.05393 22.733 10.3665C22.9209 12.1698 22.7172 13.9245 22.122 15.6305C21.3587 17.5659 20.309 19.3205 18.973 20.8945C17.2724 22.6688 15.7527 24.5802 14.414 26.6285C13.435 28.2267 12.6986 29.9344 12.205 31.7515C11.6921 32.7655 11.2064 32.7499 10.748 31.7045C10.2714 29.8037 9.50371 28.0333 8.44499 26.3935C7.88428 25.5693 7.31243 24.7546 6.72949 23.9495C9.21546 21.0932 11.6908 18.2262 14.1555 15.3485C14.6465 14.9515 15.0538 14.4815 15.3775 13.9385C17.4755 11.5114 19.5748 9.08303 21.6755 6.6535Z" fill="#31A653"/>
<path fill-rule="evenodd" clip-rule="evenodd" d="M7.34046 9.94348C6.62644 11.9833 7.06513 13.7301 8.65646 15.184C10.4542 16.4659 12.2872 16.5207 14.1555 15.3485C11.6908 18.2262 9.21543 21.0932 6.72946 23.9495C5.89023 22.9296 5.00503 21.9426 4.07396 20.9885C3.44407 20.183 2.84872 19.3527 2.28796 18.4975C1.94477 17.952 1.63927 17.388 1.37146 16.8055C3.36247 14.517 5.35217 12.2296 7.34046 9.94348Z" fill="#FEBA01"/>
</svg>
