<svg width="76" height="60" viewBox="0 0 76 60" fill="none" xmlns="http://www.w3.org/2000/svg">
<path fill-rule="evenodd" clip-rule="evenodd" d="M44.6872 0.196156C44.7552 0.0533314 44.9 -0.0236843 45.0439 0.00649156L50.2815 1.10509C50.4434 1.13904 50.5583 1.29843 50.5516 1.47975L50.2274 10.2262L54.3576 12.7529L60.8388 7.84618C60.9686 7.7479 61.1433 7.7634 61.2571 7.88331L65.0814 11.9115C65.2023 12.0388 65.2185 12.2451 65.1193 12.3934L60.5914 19.1601L62.8794 23.6112L70.9905 23.2539C71.1449 23.2471 71.2832 23.3584 71.3243 23.5224L72.6545 28.8323C72.6975 29.004 72.6221 29.1849 72.4759 29.2609L65.2672 33.0069V38.1248L72.4731 41.7802C72.6178 41.8537 72.6949 42.0298 72.6569 42.2002L71.493 47.4185C71.455 47.5888 71.3128 47.7055 71.1537 47.6969L62.9371 47.2534C62.9221 47.2859 62.9062 47.3201 62.8897 47.3555C62.7925 47.5636 62.6688 47.8227 62.5473 48.0749C62.4483 48.2805 62.3505 48.4822 62.2694 48.649C70.23 52.1176 75.2504 58.4495 76 59.4585L75.7426 59.6904C75.5531 59.9912 75.5529 59.9911 75.5529 59.9911L75.552 59.9905L75.548 59.9874L75.5306 59.9743C75.515 59.9626 75.4913 59.9449 75.4597 59.9215C75.3963 59.8747 75.3011 59.8051 75.1748 59.7152C74.9223 59.5353 74.5459 59.2738 74.053 58.9496C73.0672 58.3011 71.6156 57.4017 69.7575 56.4017C66.0407 54.4016 60.7005 52.001 54.21 50.4007C41.2334 47.2012 23.661 47.2001 5.25313 60L5.07558 59.6904L4.82434 59.4505C8.93608 54.2297 13.6757 50.974 17.5643 49.0235C19.5088 48.0481 21.2427 47.3979 22.5825 46.991C23.8883 46.5945 24.845 46.4214 25.2578 46.4158C34.6645 45.2254 39.1889 44.2864 44.481 44.5847C50.8826 44.9455 52.1003 45.3131 53.5 45.5C54.1999 45.5935 54.9391 46.2613 55.2997 46.3223C55.2997 46.3223 55.5045 46.3575 55.5821 46.3715C60.7921 36.1088 58.815 26.8364 53.2315 20.9432C47.6668 15.0697 37.974 12.6913 28.6017 15.9198C28.4962 15.9569 28.7072 15.8812 28.6017 15.9198H28.5719C28.5378 15.9198 28.5051 15.9062 28.481 15.8821V15.8821C28.4596 15.8607 28.4466 15.8327 28.444 15.8027C27.9468 10.0105 27.4218 2.96079 27.2747 0.948674L27.5522 0.920898L32.6235 0.00484761C32.7684 -0.0213163 32.9118 0.0603145 32.9762 0.205672L36.2106 7.50709H41.2056L44.6872 0.196156Z" fill="url(#paint0_linear_67_516)"/>
<path d="M18.6252 33.0494V38.634L19.3734 39.0002L18.9577 38.2678" stroke="black" stroke-width="0.45"/>
<path d="M12.3898 38.2677L13.5538 35.7959L16.713 38.6339L18.1263 39.641L20 42L18.1263 41.2889L16.713 40.696L15.5 40.5L14.4683 41.2889L16.9624 41.8382L18.1263 42.3875L18.6252 43.4861L19.4565 43.5776L19.9554 44.0354L21.0362 42.9368V41.8382L21.4518 42.3875L21.0362 42.9368L19.9554 44.0354L19.2071 44.4016V45.134V46.6903L18.1263 47.3312L17.7106 46.6903L16.2142 45.9579L14.1357 43.4861H10.7271L10.3945 42.9368L10.9765 41.8382L11.6416 41.2889L11.9741 40.3734V39.0001L12.3898 38.2677Z" fill="black"/>
<path d="M19.9554 44.0354L19.2071 44.4016V45.134V46.6903L18.1263 47.3312L17.7106 46.6903L16.2142 45.9579L14.1357 43.4861H10.7271L10.3945 42.9368L10.9765 41.8382L11.6416 41.2889L11.9741 40.3734V39.0001L12.3898 38.2677L13.5538 35.7959L16.713 38.6339L18.1263 39.641L20 42L18.1263 41.2889L16.713 40.696L15.5 40.5L14.4683 41.2889L16.9624 41.8382L18.1263 42.3875L18.6252 43.4861L19.4565 43.5776L19.9554 44.0354ZM19.9554 44.0354L21.0362 42.9368M21.0362 42.9368L21.4518 42.3875L21.0362 41.8382V42.9368Z" stroke="black" stroke-width="0.2"/>
<path d="M25.6919 16.3875V20.6903L25.2762 21.0565" stroke="black" stroke-width="0.2"/>
<path d="M1 26.7325L3.41099 19.5001L6.15454 18.6762V17.6691L7.31847 17.3029L9.06436 16.5705L9.97887 17.3029L10.2283 16.5705L10.4777 16.2043V14.4649L11.5585 15.2888L12 15L14.9671 16.2043H15.6322L15.2997 14.4649L15.6322 13.4578L17.0456 12.4508L16.1311 11.9015L14.9671 12.4508L14.1358 11.4437L15.6322 9.24655L17.7107 8.2395H19.8367L19.9554 10.5282L21.0362 11.7184H22.117L25.1931 12.4508V13.4578L24.2786 13.824L23.5303 16.5705L25.1931 19L23.5303 17.6691H22.3664L19.9554 20.141L17.0456 22.3381L17.3781 25.817L17.7107 26.0917L19.8367 25.1379L21.0362 24.5353L21.6182 23.8029V23.3452V22.8874L23.5303 20.5987L24.2786 20.8733L21.6182 23.3452V23.8029L21.0362 24.5353L19.9554 25.0846L19.8367 25.1379L17.7107 26.0917L17.3781 25.817L16.713 26.7325L17.3781 27.5565L17.7107 29.6621L16.713 27.5565V26.7325V25.0846L16.3805 21.3311H15.6322L14.9671 25.0846L12.473 20.141V18.6762L9.97887 17.3029L9.72946 20.0494L10.2283 20.5987L10.8103 20.141V20.5987L13.4707 25.0846L12.473 24.0776L11.891 24.5353L14.302 28.0142L10.2283 23.8029L10.8103 28.9297L9.97887 34.3311L10.4777 35.0635L11.5585 34.3311L11.2259 35.4297H9.97887L7.81729 34.6973L8.73181 33.2325L9.39691 28.0142V24.0776V21.9719L7.4016 19.8663L6.81964 20.141L8.23298 23.2536V25.817L7.81729 24.5353L6.48709 23.2536L7.31847 26.0917L6.15454 23.5283H5.4063L5.82199 27.5565V28.9297L5.07375 32.134L7.31847 32.7748L6.81964 34.3311H5.82199L5.07375 35.0635V35.8875H7.31847H8.39926L9.06436 36.6199L9.39691 38.1762H9.97887V36.6199H11.5585L12.8056 35.0635L11.5585 37.4438L10.8103 40.2819L9.97887 41.2889L9.06436 43.2115L3.82668 41.7467L1.41569 35.8875L1 26.7325Z" fill="black"/>
<path d="M9.97887 17.3029L9.72946 20.0494L10.2283 20.5987L10.8103 20.141V20.5987L13.4707 25.0846L12.473 24.0776L11.891 24.5353L14.302 28.0142L10.2283 23.8029L10.8103 28.9297L9.97887 34.3311L10.4777 35.0635L11.5585 34.3311L11.2259 35.4297H9.97887L7.81729 34.6973L8.73181 33.2325L9.39691 28.0142V24.0776V21.9719L7.4016 19.8663L6.81964 20.141L8.23298 23.2536V25.817L7.81729 24.5353L6.48709 23.2536L7.31847 26.0917L6.15454 23.5283H5.4063L5.82199 27.5565V28.9297L5.07375 32.134L7.31847 32.7748L6.81964 34.3311H5.82199L5.07375 35.0635V35.8875H7.31847H8.39926L9.06436 36.6199L9.39691 38.1762H9.97887V36.6199H11.5585L12.8056 35.0635L11.5585 37.4438L10.8103 40.2819L9.97887 41.2889L9.06436 43.2115L3.82668 41.7467L1.41569 35.8875L1 26.7325L3.41099 19.5001L6.15454 18.6762V17.6691L7.31847 17.3029L9.06436 16.5705L9.97887 17.3029ZM9.97887 17.3029L12.473 18.6762V20.141L14.9671 25.0846M9.97887 17.3029L10.2283 16.5705L10.4777 16.2043V14.4649L11.5585 15.2888L12 15L14.9671 16.2043H15.6322L15.2997 14.4649L15.6322 13.4578L17.0456 12.4508L16.1311 11.9015L14.9671 12.4508L14.1358 11.4437M14.9671 25.0846L15.6322 28.3804L16.3805 31.4016L16.713 36.6199M14.9671 25.0846L15.6322 21.3311H16.3805L16.713 25.0846V26.7325M16.713 26.7325V27.5565L17.7107 29.6621L17.3781 27.5565L16.713 26.7325ZM16.713 26.7325L17.3781 25.817M17.3781 25.817L17.0456 22.3381L19.9554 20.141L22.3664 17.6691H23.5303L25.1931 19L23.5303 16.5705L24.2786 13.824L25.1931 13.4578M17.3781 25.817L17.7107 26.0917L19.8367 25.1379M25.1931 13.4578L25.6919 15.2888V16.5705M25.1931 13.4578V12.4508L22.117 11.7184H21.0362L19.9554 10.5282L19.8367 8.2395M25.4425 20.8733H24.2786M24.2786 20.8733L23.5303 20.5987L21.6182 22.8874V23.3452M24.2786 20.8733L21.6182 23.3452M21.0362 24.5353L21.6182 23.8029V23.3452M21.0362 24.5353L19.9554 25.0846L19.8367 25.1379M21.0362 24.5353L19.8367 25.1379M19.8367 8.2395L21.6182 8.69725L24 11.7184M19.8367 8.2395H17.7107L15.6322 9.24655L14.1358 11.4437M14.1358 11.4437L12.473 14.4649" stroke="black" stroke-width="0.3"/>
<path d="M20.0385 46.141L20.7036 45.7748V44.7678H21.7844M21.7844 44.7678L22.5326 45.3171V44.31M21.7844 44.7678V43.303L22.5326 44.31M21.7844 44.7678L22.5326 44.31" stroke="black" stroke-width="0.6"/>
<path d="M23.5 43.5L22.3729 41.8382H24.7774L25 43.6692L23.5 45V43.5Z" fill="black"/>
<path d="M25.6088 42.479V41.472H26.066H26.5233L27.2715 41.8382H27.7703L28.1029 42.479H28.6017L29.2668 42.9368L29.9319 43.4861L31.2621 44.6762L31.5947 44.1269L28.6017 37.3522L32.0104 43.6692L30.8464 37.81L32.2598 43.6692H32.6755L33.0911 36.8945V43.6692L36.1672 35.7043L33.6731 43.6692H34.0057L38.9108 37.81L34.5045 43.6692V44.1269L39.2433 41.8382L35.0865 44.1269V44.6762L40.6567 45.134L35.0865 45.5917L43.1508 46.5072H22.8652L30.3476 45.9579V45.5917L25.6088 44.6762L30.8464 45.134V44.6762L29.6825 43.6692L29.2668 44.1269L28.6017 43.6692H28.1029L27.2715 42.479H25.6088Z" fill="black"/>
<path d="M25.6088 41.472V42.479H27.2715L28.1029 43.6692H28.6017L29.2668 44.1269L29.6825 43.6692L30.8464 44.6762V45.134L25.6088 44.6762L30.3476 45.5917V45.9579L22.8652 46.5072H43.1508L35.0865 45.5917L40.6567 45.134L35.0865 44.6762V44.1269L39.2433 41.8382L34.5045 44.1269V43.6692L38.9108 37.81L34.0057 43.6692H33.6731L36.1672 35.7043L33.0911 43.6692V36.8945L32.6755 43.6692H32.2598L30.8464 37.81L32.0104 43.6692L28.6017 37.3522L31.5947 44.1269L31.2621 44.6762L29.9319 43.4861M25.6088 41.472H26.066H26.5233L27.2715 41.8382H27.7703L28.1029 42.479H28.6017L29.2668 42.9368M25.6088 41.472L26.066 40.9227H26.5233L27.6041 41.1058L25.1931 38.2677M29.9319 43.4861L30.0982 42.9368M29.9319 43.4861L29.2668 42.9368M29.2668 42.9368V41.8382M22.3729 41.8382L23.5 43.5V45L25 43.6692L24.7774 41.8382H22.3729Z" stroke="black" stroke-width="0.3"/>
<path d="M32.2598 36.9861C27.6041 34.0565 26.8558 26.2748 29.2669 22.2466L32.9249 26.9156L48.9705 23.6198L49.3862 24.81L48.9705 25.1762L49.3862 25.9086L51.7972 24.2607L52.296 25.1762L46.8089 29.2959L46.3101 28.5635L48.1391 27.2818L48.4716 26.4579L47.7234 25.5424L42.5689 26.9156V28.0142L43.9822 30.6691H45.063L43.9822 31.7677L45.063 34.5142L45.4787 33.9649L46.3101 34.8804H46.8089H47.7234L47.3077 33.9649L48.1391 32.9579L48.9705 33.5987L48.4716 32.5001L49.6356 32.1339L50.7995 33.9649L52.102 33.0884L52.296 32.9579H54.5407V33.5987L52.296 35.979V36.9861L54.8732 39.9157H56.8686L57.6168 40.7396C57.0344 43.2637 56.5717 44.454 55.5384 46.2326C49.1977 45.0249 45.5654 44.6509 38.9108 44.6762V37.4438L39.3265 32.9579H38.412V32.1339L38.9108 31.7677L39.8253 31.31V28.5635L40.241 28.0142V27.2818L33.5069 29.2959L32.2598 36.9861Z" fill="black"/>
<path d="M52.102 33.0884L52.296 32.9579H54.5407V33.5987L52.296 35.979V36.9861L54.8732 39.9157H56.8686L57.6168 40.7396C57.0344 43.2637 56.5717 44.454 55.5384 46.2326C49.1977 45.0249 45.5654 44.6509 38.9108 44.6762V37.4438L39.3265 32.9579H38.412V32.1339L38.9108 31.7677L39.8253 31.31V28.5635L40.241 28.0142V27.2818L33.5069 29.2959L32.2598 36.9861C27.6041 34.0565 26.8558 26.2748 29.2669 22.2466L32.9249 26.9156L48.9705 23.6198L49.3862 24.81L48.9705 25.1762L49.3862 25.9086L51.7972 24.2607L52.296 25.1762L46.8089 29.2959L46.3101 28.5635L48.1391 27.2818L48.4716 26.4579L47.7234 25.5424L42.5689 26.9156V28.0142L43.9822 30.6691H45.063L43.9822 31.7677L45.063 34.5142L45.4787 33.9649L46.3101 34.8804H46.8089H47.7234L47.3077 33.9649L48.1391 32.9579L48.9705 33.5987L48.4716 32.5001L49.6356 32.1339L50.7995 33.9649L52.102 33.0884ZM52.102 33.0884L51.7972 25.6339" stroke="black" stroke-width="0.2"/>
<path d="M40.7398 37.9016L42.1531 39.2748L42.5688 37.1692L43.5665 36.0706L42.5688 33.3241H41.9037L40.7398 33.5987V37.1692H41.7375V37.9016H40.7398Z" fill="white" stroke="white" stroke-width="0.01"/>
<path d="M40.9893 28.7466V31.0353H42.1532L40.9893 28.7466Z" fill="white" stroke="white" stroke-width="0.01"/>
<path d="M43.4834 39.641V38.817H44.3148L44.6473 39.3663L44.3148 40.0072L43.4834 39.641Z" fill="white" stroke="white" stroke-width="0.01"/>
<path d="M46.8089 29.3875V34.8804" stroke="black" stroke-width="0.2"/>
<path d="M30.0151 27.465L28.768 28.0143C28.812 29.2755 28.9288 29.7802 29.2668 30.3946L30.597 29.8453C30.2049 29.1 30.0658 28.5915 30.0151 27.465Z" fill="white"/>
<path d="M30.8464 30.5777L29.5162 31.31C30.1926 33.1299 30.7056 33.9375 31.761 35.1551L32.1767 32.134C31.5763 31.6817 31.2742 31.3621 30.8464 30.5777Z" fill="white"/>
<path d="M30.0151 27.465L28.768 28.0143C28.812 29.2755 28.9288 29.7802 29.2668 30.3946L30.597 29.8453C30.2049 29.1 30.0658 28.5915 30.0151 27.465Z" stroke="white" stroke-width="0.01"/>
<path d="M30.8464 30.5777L29.5162 31.31C30.1926 33.1299 30.7056 33.9375 31.761 35.1551L32.1767 32.134C31.5763 31.6817 31.2742 31.3621 30.8464 30.5777Z" stroke="white" stroke-width="0.01"/>
<path d="M29.35 23.9861C29.0007 25.0028 28.8763 25.6473 28.768 26.9157L30.1813 26.5495C30.3508 25.6771 30.4304 25.3462 30.5139 25.3593L29.35 23.9861Z" fill="white" stroke="white" stroke-width="0.01"/>
<path d="M32.0935 29.6622C31.4661 28.8022 31.2745 28.283 31.2621 27.2819H31.9272C31.9835 28.2403 32.1585 28.6313 32.5923 29.2044L32.0935 29.6622Z" fill="white" stroke="white" stroke-width="0.2"/>
<defs>
<linearGradient id="paint0_linear_67_516" x1="21.937" y1="9.08553e-08" x2="45.4506" y2="56.4968" gradientUnits="userSpaceOnUse">
<stop offset="0.5" stop-color="#FFE600"/>
<stop offset="1" stop-color="#FF0000"/>

</linearGradient>
</defs>
</svg>
