<svg width="76" height="60" viewBox="0 0 76 60" fill="none" xmlns="http://www.w3.org/2000/svg">
<path fill-rule="evenodd" clip-rule="evenodd" d="M44.6872 0.196156C44.7552 0.0533314 44.9 -0.0236843 45.0439 0.00649156L50.2815 1.10509C50.4434 1.13904 50.5583 1.29843 50.5516 1.47975L50.2274 10.2262L54.3576 12.7529L60.8388 7.84618C60.9686 7.7479 61.1433 7.7634 61.2571 7.88331L65.0814 11.9115C65.2023 12.0388 65.2185 12.2451 65.1193 12.3934L60.5914 19.1601L62.8794 23.6112L70.9905 23.2539C71.1449 23.2471 71.2832 23.3584 71.3243 23.5224L72.6545 28.8323C72.6975 29.004 72.6221 29.1849 72.4759 29.2609L65.2672 33.0069V38.1248L72.4731 41.7802C72.6178 41.8537 72.6949 42.0298 72.6569 42.2002L71.493 47.4185C71.455 47.5888 71.3128 47.7055 71.1537 47.6969L62.9371 47.2534C62.9221 47.2859 62.9062 47.3201 62.8897 47.3555C62.7925 47.5636 62.6688 47.8227 62.5473 48.0749C62.4483 48.2805 62.3505 48.4822 62.2694 48.649C70.23 52.1176 75.2504 58.4495 76 59.4585L75.7426 59.6904C75.5531 59.9912 75.5529 59.9911 75.5529 59.9911L75.552 59.9905L75.548 59.9874L75.5306 59.9743C75.515 59.9626 75.4913 59.9449 75.4597 59.9215C75.3963 59.8747 75.301 59.8051 75.1748 59.7152C74.9223 59.5353 74.5459 59.2738 74.053 58.9496C73.0672 58.3011 71.6156 57.4017 69.7575 56.4017C66.0407 54.4016 60.7005 52.001 54.21 50.4007C41.2334 47.2012 23.661 47.2001 5.25313 60L5.07558 59.6904L4.82434 59.4504C8.93608 54.2296 13.6757 50.974 17.5643 49.0235C19.5088 48.048 21.2427 47.3979 22.5825 46.991C23.8883 46.5945 24.845 46.4214 25.2578 46.4158C34.6644 45.2254 42.3046 45.2253 47.5967 45.5235C50.2445 45.6728 52.3047 45.8967 53.7044 46.0836C54.4043 46.1771 54.9391 46.2613 55.2997 46.3223C55.4103 46.341 55.5045 46.3575 55.5821 46.3715C60.7921 36.1088 58.815 26.8364 53.2315 20.9432C47.6668 15.0697 37.974 12.6913 28.6017 15.9198C28.4962 15.9569 28.7072 15.8812 28.6017 15.9198H28.5719C28.5378 15.9198 28.5051 15.9062 28.481 15.8821V15.8821C28.4596 15.8607 28.4466 15.8327 28.444 15.8027C27.9468 10.0105 27.4218 2.96079 27.2747 0.948674L27.5522 0.920898L27.5521 0.920344L32.6235 0.0048476C32.7684 -0.0213163 32.9118 0.0603144 32.9762 0.205672L36.2106 7.50709H41.2056L44.6872 0.196156Z" fill="url(#paint0_linear_67_495)"/>
<path d="M18.6252 33.5988V36.391V38.5594C18.6252 38.9412 18.8426 39.2897 19.1856 39.4576L19.3734 39.5495L18.9577 38.8171" stroke="black" stroke-width="0.5"/>
<path d="M12.3899 38.8171L13.5538 36.3452L16.713 39.1833L18.0147 40.1107C18.0888 40.1635 18.1554 40.2262 18.2125 40.297L19.432 41.8077C19.4385 41.8158 19.43 41.8272 19.4204 41.8232L18.1264 41.2889L17.1042 40.7592C16.855 40.63 16.563 40.6116 16.2995 40.7083L15.8484 40.8739C15.7601 40.9063 15.6769 40.9509 15.6012 41.0065L15.0026 41.4459C14.7946 41.5986 14.8636 41.9253 15.1156 41.9808L16.8525 42.3633C16.9256 42.3794 16.9966 42.4036 17.0642 42.4355L17.7944 42.7801C18.0087 42.8813 18.1802 43.0552 18.2781 43.271L18.3899 43.5171C18.5358 43.8384 18.8402 44.0591 19.191 44.0977L19.2939 44.109C19.3996 44.1207 19.4988 44.1657 19.5772 44.2376L19.9554 44.5847L21.0362 43.4861V42.9368C21.0362 42.76 21.261 42.6845 21.3677 42.8255C21.4175 42.8913 21.4175 42.9822 21.3677 43.0481L21.0362 43.4861L19.9554 44.5847L19.7676 44.6766C19.4246 44.8445 19.2072 45.193 19.2072 45.5748V45.6833V46.67C19.2072 47.0231 19.0209 47.35 18.7172 47.5301L18.5395 47.6355C18.3087 47.7724 18.0087 47.6991 17.8627 47.474C17.7641 47.322 17.6247 47.1975 17.462 47.1179L16.404 46.6001C16.2789 46.5389 16.1679 46.4521 16.0782 46.3455L14.4355 44.3918C14.2455 44.1658 13.9653 44.0354 13.6701 44.0354H11.0089C10.834 44.0354 10.6718 43.944 10.5812 43.7943L10.4239 43.5346C10.4057 43.5045 10.4046 43.4671 10.4211 43.436L10.8833 42.5635C10.9448 42.4473 11.0287 42.3444 11.1301 42.2606L11.4315 42.0117C11.5691 41.8981 11.6737 41.7498 11.7347 41.5821L11.9141 41.0881C11.9538 40.9787 11.9742 40.8631 11.9742 40.7467V39.8135C11.9742 39.6404 12.0191 39.4703 12.1045 39.3198L12.3899 38.8171Z" fill="black"/>
<path d="M19.9554 44.5847L19.7676 44.6766C19.4246 44.8445 19.2072 45.193 19.2072 45.5748V45.6833V46.67C19.2072 47.0231 19.0209 47.35 18.7172 47.5301L18.5395 47.6355C18.3087 47.7724 18.0087 47.6991 17.8627 47.474V47.474C17.7641 47.322 17.6247 47.1975 17.462 47.1179L16.404 46.6001C16.2789 46.5389 16.1679 46.4521 16.0782 46.3455L14.4355 44.3918C14.2455 44.1658 13.9653 44.0354 13.6701 44.0354H11.0089C10.834 44.0354 10.6718 43.944 10.5812 43.7943L10.4239 43.5346C10.4057 43.5045 10.4046 43.4671 10.4211 43.436L10.8833 42.5635C10.9448 42.4473 11.0287 42.3444 11.1301 42.2606L11.4315 42.0117C11.5691 41.8981 11.6737 41.7498 11.7347 41.5821L11.9141 41.0881C11.9538 40.9787 11.9742 40.8631 11.9742 40.7467V39.8135C11.9742 39.6404 12.0191 39.4703 12.1045 39.3198L12.3899 38.8171L13.5538 36.3452L16.713 39.1833L18.0147 40.1107C18.0888 40.1635 18.1554 40.2262 18.2125 40.297L19.432 41.8077C19.4385 41.8158 19.43 41.8272 19.4204 41.8232L18.1264 41.2889L17.1042 40.7592C16.855 40.63 16.563 40.6116 16.2995 40.7083L15.8484 40.8739C15.7601 40.9063 15.6769 40.9509 15.6012 41.0065L15.0026 41.4459C14.7946 41.5986 14.8636 41.9253 15.1156 41.9808L16.8525 42.3633C16.9256 42.3794 16.9966 42.4036 17.0642 42.4355L17.7944 42.7801C18.0087 42.8813 18.1802 43.0552 18.2781 43.271L18.3899 43.5171C18.5358 43.8384 18.8402 44.0591 19.191 44.0977L19.2939 44.109C19.3996 44.1207 19.4988 44.1657 19.5772 44.2376L19.9554 44.5847ZM19.9554 44.5847L21.0362 43.4861M21.0362 43.4861L21.3677 43.0481C21.4175 42.9822 21.4175 42.8913 21.3677 42.8255V42.8255C21.261 42.6845 21.0362 42.76 21.0362 42.9368V43.4861Z" stroke="black" stroke-width="0.2"/>
<path d="M25.6919 16.9368V21.2396L25.2762 21.6058" stroke="black" stroke-width="0.3"/>
<path d="M1.02936 27.1938L3.39458 20.0986C3.40487 20.0678 3.42953 20.0439 3.46069 20.0345L5.94083 19.2897C6.06768 19.2516 6.15454 19.1348 6.15454 19.0023V18.2918C6.15454 18.2481 6.18287 18.2095 6.22453 18.1964L7.31847 17.8522L9.00955 17.1428C9.04333 17.1287 9.08216 17.1341 9.11075 17.157L9.97887 17.8522L10.1846 17.248C10.2136 17.163 10.2539 17.0822 10.3045 17.0079C10.4174 16.8422 10.4777 16.6464 10.4777 16.446V15.0344C10.4777 15.0261 10.4872 15.0214 10.4938 15.0264L11.2826 15.6278C11.428 15.7387 11.6381 15.6947 11.7268 15.5347L11.891 15.2386L14.8708 16.7062C14.9342 16.7374 15.0039 16.7536 15.0745 16.7536C15.364 16.7536 15.5819 16.4901 15.5275 16.2059L15.3484 15.2691C15.3165 15.1019 15.3277 14.9294 15.3811 14.7678L15.5296 14.318C15.5963 14.116 15.7256 13.9406 15.8989 13.8172L16.6383 13.2903C16.84 13.1466 16.8438 12.8484 16.6459 12.6996C16.4953 12.5864 16.2834 12.6059 16.1561 12.7448L15.5539 13.4016C15.4238 13.5437 15.1954 13.5279 15.0859 13.3694L14.1358 11.9931L14.9332 10.8223C15.3912 10.1498 16.0176 9.60916 16.7498 9.25438C17.3822 8.94799 18.0757 8.78882 18.7784 8.78882H19.8367L19.9369 10.7212C19.9489 10.9517 20.0401 11.1709 20.1953 11.3417L20.7386 11.94C20.9281 12.1487 21.1969 12.2677 21.4789 12.2677H21.9996C22.0776 12.2677 22.1553 12.2768 22.2312 12.2949L25.0394 12.9635C25.1295 12.985 25.1931 13.0655 25.1931 13.1581V14.0071C24.6171 14.2378 24.1827 14.7252 24.0196 15.3238L23.7652 16.2579C23.6157 16.8064 23.7068 17.3926 24.0156 17.8699L25.1931 19.6901L23.8141 18.4696C23.6313 18.3078 23.3955 18.2184 23.1513 18.2184H22.7879C22.5184 18.2184 22.2603 18.3272 22.0721 18.5202L20.0083 20.6361C19.9731 20.6722 19.9352 20.7055 19.895 20.7359L17.0456 22.8875L17.3781 26.3663L17.7107 26.641L19.8367 25.6872L21.0362 25.0847L21.3334 24.7106C21.5178 24.4786 21.6182 24.1909 21.6182 23.8945V23.6181C21.6182 23.501 21.6593 23.3875 21.7344 23.2976L23.5303 21.148L24.2786 21.4227L21.6182 23.8945C21.6182 24.1909 21.5178 24.4786 21.3334 24.7106L21.0362 25.0847L19.9554 25.6339L19.8367 25.6872L17.7107 26.641L17.3781 26.3663L16.713 27.2818C17.1488 27.8217 17.4351 28.4665 17.5433 29.1517L17.6998 30.1428C17.7016 30.1542 17.6859 30.1591 17.6809 30.1486L17.0658 28.8504C16.8335 28.3601 16.713 27.8244 16.713 27.2818V25.6339L16.4119 22.2355C16.3941 22.0345 16.2258 21.8804 16.024 21.8804C15.7974 21.8804 15.6034 22.043 15.5639 22.2662L14.9671 25.6339L12.5802 20.9027C12.5097 20.763 12.473 20.6088 12.473 20.4523V19.6392C12.473 19.384 12.3342 19.149 12.1106 19.026L9.97887 17.8522L9.75727 20.2925C9.73955 20.4876 9.80445 20.6813 9.93619 20.8264L10.2283 21.148L10.656 20.8116C10.7185 20.7624 10.8103 20.807 10.8103 20.8866C10.8103 21.0577 10.8563 21.2257 10.9436 21.3729L13.4665 25.627C13.4671 25.628 13.4658 25.629 13.465 25.6282L12.7265 24.8828C12.5821 24.737 12.3512 24.7227 12.1899 24.8496C12.022 24.9817 11.9859 25.2216 12.1076 25.3971L14.2322 28.4628C14.2392 28.4729 14.2253 28.4842 14.2168 28.4754L10.2487 24.3734C10.2421 24.3665 10.2305 24.372 10.2316 24.3815L10.6896 28.4166C10.7697 29.1217 10.7555 29.8344 10.6476 30.5359L10.0987 34.1016C10.0217 34.6021 10.1374 35.1132 10.4225 35.5317L10.4777 35.6129L11.5351 34.8963C11.5429 34.891 11.553 34.8984 11.5503 34.9075L11.2259 35.9791H10.8029C10.2572 35.9791 9.71523 35.8897 9.1984 35.7146L8.34805 35.4265C8.07701 35.3347 7.96252 35.014 8.11407 34.7713C8.52107 34.1194 8.78212 33.3871 8.87928 32.6248L9.39691 28.5635V24.6269V23.4082C9.39691 22.8387 9.17857 22.2908 8.78684 21.8775L7.58798 20.6123C7.47677 20.4949 7.30278 20.4623 7.15656 20.5313C6.97024 20.6192 6.89002 20.8412 6.9771 21.0279L8.19433 23.6382C8.32892 23.9268 8.39118 24.2438 8.37573 24.5619L8.2374 27.4091C8.23682 27.4211 8.21958 27.4221 8.21755 27.4104L8.02262 26.2777C7.8909 25.5123 7.46607 24.8268 6.84001 24.3672C6.83271 24.3618 6.82258 24.3682 6.82423 24.3771L7.37983 27.3822C7.38206 27.3943 7.3648 27.399 7.3606 27.3875L6.24686 24.331C6.19143 24.1788 6.04679 24.0776 5.88488 24.0776C5.63896 24.0776 5.45599 24.3049 5.50852 24.5451L5.98673 26.7325C6.09828 27.2427 6.15454 27.7634 6.15454 28.2857C6.15454 29.076 6.02571 29.861 5.77312 30.6098L5.07375 32.6833L7.02059 33.2391C7.18353 33.2856 7.27564 33.4577 7.22392 33.6191L6.86584 34.7363C6.83831 34.8222 6.75846 34.8805 6.66829 34.8805H6.33758C6.00707 34.8805 5.68972 35.0099 5.45353 35.2411C5.21064 35.4789 5.07375 35.8044 5.07375 36.1443V36.4368H7.31847H8.00084C8.25457 36.4368 8.49652 36.5439 8.66711 36.7318L8.90121 36.9895C9.00807 37.1072 9.08185 37.2511 9.11507 37.4065L9.34253 38.471C9.37424 38.6195 9.50537 38.7255 9.65715 38.7255C9.83483 38.7255 9.97887 38.5815 9.97887 38.4038V37.1792C9.97887 37.1737 9.98335 37.1692 9.98887 37.1692H11.3184C11.4702 37.1692 11.6137 37.1003 11.7086 36.9819L12.7409 35.6935C12.7485 35.6841 12.7632 35.6937 12.7576 35.7044L11.8728 37.3932C11.6639 37.7919 11.5006 38.2128 11.3858 38.6481L11.0232 40.0234C10.8829 40.5556 10.6288 41.051 10.2784 41.4754C10.0795 41.7164 9.91099 41.9809 9.77676 42.2631L9.10052 43.6847C9.07962 43.7287 9.03014 43.7512 8.98328 43.7381L4.06158 42.3617C3.91333 42.3202 3.79244 42.2128 3.73387 42.0704L1.44884 36.5174C1.4269 36.4641 1.41435 36.4074 1.41174 36.3498L1.00421 27.3746C1.00143 27.3133 1.00995 27.252 1.02936 27.1938Z" fill="black"/>
<path d="M9.97887 17.8522L9.75727 20.2925C9.73955 20.4876 9.80445 20.6813 9.93619 20.8264L10.2283 21.148L10.656 20.8116C10.7185 20.7624 10.8103 20.807 10.8103 20.8866V20.8866C10.8103 21.0577 10.8563 21.2257 10.9436 21.3729L13.4665 25.627C13.4671 25.628 13.4658 25.629 13.465 25.6282L12.7265 24.8828C12.5821 24.737 12.3512 24.7227 12.1899 24.8496V24.8496C12.022 24.9817 11.9859 25.2216 12.1076 25.3971L14.2322 28.4628C14.2392 28.4729 14.2253 28.4842 14.2168 28.4754L10.2487 24.3734C10.2421 24.3665 10.2305 24.372 10.2316 24.3815L10.6896 28.4166C10.7697 29.1217 10.7555 29.8344 10.6476 30.5359L10.0987 34.1016C10.0217 34.6021 10.1374 35.1132 10.4225 35.5317L10.4777 35.6129L11.5351 34.8963C11.5429 34.891 11.553 34.8984 11.5503 34.9075L11.2259 35.9791H10.8029C10.2572 35.9791 9.71523 35.8897 9.1984 35.7146L8.34805 35.4265C8.07701 35.3347 7.96252 35.014 8.11407 34.7713V34.7713C8.52107 34.1194 8.78212 33.3871 8.87928 32.6248L9.39691 28.5635V24.6269V23.4082C9.39691 22.8387 9.17857 22.2908 8.78684 21.8775L7.58798 20.6123C7.47677 20.4949 7.30278 20.4623 7.15656 20.5313V20.5313C6.97024 20.6192 6.89002 20.8412 6.9771 21.0279L8.19433 23.6382C8.32892 23.9268 8.39118 24.2438 8.37573 24.5619L8.2374 27.4091C8.23682 27.4211 8.21958 27.4221 8.21755 27.4104L8.02262 26.2777C7.8909 25.5123 7.46607 24.8268 6.84001 24.3672V24.3672C6.83271 24.3618 6.82258 24.3682 6.82423 24.3771L7.37983 27.3822C7.38206 27.3943 7.3648 27.399 7.3606 27.3875L6.24686 24.331C6.19143 24.1788 6.04679 24.0776 5.88488 24.0776V24.0776C5.63896 24.0776 5.45599 24.3049 5.50852 24.5451L5.98673 26.7325C6.09828 27.2427 6.15454 27.7634 6.15454 28.2857V28.2857C6.15454 29.076 6.02571 29.861 5.77312 30.6098L5.07375 32.6833L7.02059 33.2391C7.18353 33.2856 7.27564 33.4577 7.22392 33.6191L6.86584 34.7363C6.83831 34.8222 6.75846 34.8805 6.66829 34.8805H6.33758C6.00707 34.8805 5.68972 35.0099 5.45353 35.2411V35.2411C5.21064 35.4789 5.07375 35.8044 5.07375 36.1443V36.4368H7.31847H8.00084C8.25457 36.4368 8.49652 36.5439 8.66711 36.7318L8.90121 36.9895C9.00807 37.1072 9.08185 37.2511 9.11507 37.4065L9.34253 38.471C9.37424 38.6195 9.50538 38.7255 9.65715 38.7255V38.7255C9.83483 38.7255 9.97887 38.5815 9.97887 38.4038V37.1792C9.97887 37.1737 9.98335 37.1692 9.98887 37.1692H11.3184C11.4702 37.1692 11.6137 37.1003 11.7086 36.9819L12.7409 35.6935C12.7485 35.6841 12.7632 35.6937 12.7576 35.7044L11.8728 37.3932C11.6639 37.7919 11.5006 38.2128 11.3858 38.6481L11.0232 40.0234C10.8829 40.5556 10.6288 41.051 10.2784 41.4754V41.4754C10.0795 41.7164 9.91099 41.9809 9.77676 42.2631L9.10052 43.6848C9.07962 43.7287 9.03014 43.7512 8.98328 43.7381L4.06158 42.3617C3.91333 42.3202 3.79244 42.2128 3.73386 42.0704L1.44884 36.5174C1.4269 36.4641 1.41435 36.4074 1.41174 36.3498L1.00421 27.3746C1.00143 27.3133 1.00995 27.252 1.02936 27.1938L3.39458 20.0986C3.40487 20.0678 3.42953 20.0439 3.46069 20.0345L5.94083 19.2897C6.06768 19.2516 6.15454 19.1348 6.15454 19.0023V18.2918C6.15454 18.2481 6.18287 18.2095 6.22453 18.1964L7.31847 17.8522L9.00955 17.1428C9.04333 17.1287 9.08216 17.1341 9.11075 17.157L9.97887 17.8522ZM9.97887 17.8522L12.1106 19.026C12.3342 19.149 12.473 19.384 12.473 19.6392V20.4523C12.473 20.6088 12.5097 20.763 12.5802 20.9027L14.9671 25.6339M9.97887 17.8522L10.1846 17.248C10.2136 17.163 10.2539 17.0822 10.3045 17.0079V17.0079C10.4174 16.8422 10.4777 16.6464 10.4777 16.446V15.0344C10.4777 15.0261 10.4872 15.0214 10.4938 15.0264L11.2826 15.6278C11.428 15.7387 11.6381 15.6947 11.7268 15.5347L11.891 15.2386L14.8708 16.7062C14.9342 16.7374 15.0039 16.7536 15.0745 16.7536V16.7536C15.364 16.7536 15.5819 16.4901 15.5275 16.2059L15.3484 15.2691C15.3165 15.1019 15.3277 14.9294 15.3811 14.7678L15.5296 14.318C15.5963 14.116 15.7256 13.9406 15.8989 13.8172L16.6383 13.2903C16.84 13.1466 16.8438 12.8484 16.6459 12.6996V12.6996C16.4953 12.5864 16.2834 12.6059 16.1561 12.7448L15.5539 13.4016C15.4238 13.5437 15.1954 13.5279 15.0859 13.3694L14.1358 11.9931M14.9671 25.6339L15.6322 28.9297L16.0782 30.7304C16.2793 31.5424 16.4072 32.3708 16.4604 33.2057L16.713 37.1692M14.9671 25.6339L15.5639 22.2662C15.6034 22.043 15.7974 21.8804 16.024 21.8804V21.8804C16.2258 21.8804 16.3941 22.0345 16.4119 22.2355L16.713 25.6339V27.2818M16.713 27.2818V27.2818C16.713 27.8244 16.8335 28.3601 17.0658 28.8504L17.6809 30.1486C17.6859 30.1591 17.7016 30.1542 17.6998 30.1428L17.5433 29.1517C17.4351 28.4665 17.1488 27.8217 16.713 27.2818V27.2818ZM16.713 27.2818L17.3781 26.3663M17.3781 26.3663L17.0456 22.8875L19.895 20.7359C19.9352 20.7055 19.9731 20.6722 20.0083 20.6361L22.0721 18.5202C22.2603 18.3272 22.5184 18.2184 22.7879 18.2184H23.1513C23.3955 18.2184 23.6313 18.3078 23.8141 18.4696L25.1931 19.6901L24.0156 17.8699C23.7068 17.3926 23.6157 16.8064 23.7651 16.2579L24.0196 15.3238C24.1827 14.7252 24.6171 14.2378 25.1931 14.0071V14.0071M17.3781 26.3663L17.7107 26.641L19.8367 25.6872M25.1931 14.0071L25.4457 14.9346C25.6091 15.5343 25.6919 16.1531 25.6919 16.7746V17.1198M25.1931 14.0071V13.1581C25.1931 13.0655 25.1295 12.985 25.0394 12.9635L22.2312 12.2949C22.1553 12.2768 22.0776 12.2677 21.9996 12.2677H21.4789C21.1969 12.2677 20.9281 12.1487 20.7386 11.94L20.1953 11.3417C20.0402 11.1709 19.9489 10.9517 19.9369 10.7212L19.8367 8.78882M25.4425 21.4227H24.2786M24.2786 21.4227L23.5303 21.148L21.7344 23.2976C21.6593 23.3875 21.6182 23.501 21.6182 23.6181V23.8945M24.2786 21.4227L21.6182 23.8945M21.0362 25.0847L21.3334 24.7106C21.5178 24.4786 21.6182 24.1909 21.6182 23.8945V23.8945M21.0362 25.0847L19.9554 25.6339L19.8367 25.6872M21.0362 25.0847L19.8367 25.6872M19.8367 8.78882V8.78882C20.9879 9.08462 21.9991 9.77411 22.695 10.7376L23.8 12.2677M19.8367 8.78882H18.7784C18.0757 8.78882 17.3822 8.94799 16.7498 9.25438V9.25438C16.0176 9.60916 15.3912 10.1498 14.9332 10.8223L14.1358 11.9931M14.1358 11.9931L12.1405 14.8205" stroke="black" stroke-width="0.3"/>
<path d="M22.5168 45.8547L21.7844 45.3171V43.8825C21.7844 43.8729 21.7967 43.8688 21.8025 43.8766L22.5327 44.8593V45.8466C22.5327 45.8548 22.5234 45.8595 22.5168 45.8547Z" fill="black"/>
<path d="M20.0385 46.6903L20.6985 46.327C20.7017 46.3252 20.7036 46.3219 20.7036 46.3182V45.3271C20.7036 45.3216 20.7081 45.3171 20.7136 45.3171H21.7844M21.7844 45.3171L22.5168 45.8547C22.5234 45.8595 22.5327 45.8548 22.5327 45.8466V44.8593M21.7844 45.3171V43.8825C21.7844 43.8729 21.7967 43.8688 21.8025 43.8766L22.5327 44.8593M21.7844 45.3171L22.5327 44.8593" stroke="black" stroke-width="0.5"/>
<path d="M23.1214 42.9517L22.8701 42.3982C22.8678 42.3932 22.8715 42.3875 22.877 42.3875H24.7674C24.7729 42.3875 24.7774 42.392 24.7774 42.3975V43.7613C24.7774 44.0517 24.6512 44.3276 24.4317 44.5176L23.6135 45.2255C23.6135 44.4412 23.4457 43.6659 23.1214 42.9517Z" fill="black"/>
<path d="M25.6088 43.0267V42.0213H26.066H26.1068C26.3808 42.0213 26.6513 42.0839 26.8974 42.2044L27.1479 42.327C27.2292 42.3668 27.3187 42.3875 27.4092 42.3875C27.631 42.3875 27.8345 42.511 27.9366 42.7079L27.9509 42.7354C28.0443 42.9154 28.2302 43.0283 28.4329 43.0283C28.5429 43.0283 28.6502 43.0617 28.7408 43.124L29.2668 43.4861L29.9319 44.0354L30.9927 44.9845C31.1327 45.1097 31.3521 45.077 31.4494 44.9163L31.5138 44.8099C31.5645 44.7261 31.5711 44.6229 31.5315 44.5333L28.6017 37.9016L32.0104 44.2185L30.8465 38.3593L32.2154 44.0343C32.2414 44.1424 32.3381 44.2185 32.4492 44.2185C32.5764 44.2185 32.6816 44.1195 32.6893 43.9926L33.0912 37.4438V44.2185L36.1673 36.2537L33.7471 43.9822C33.7104 44.0994 33.798 44.2185 33.9207 44.2185C33.9746 44.2185 34.0257 44.1946 34.0602 44.1533L38.9108 38.3593L34.5522 44.1551C34.5212 44.1962 34.5045 44.2463 34.5045 44.2978C34.5045 44.4729 34.6876 44.5878 34.8453 44.5117L39.2434 42.3875L35.2418 44.5907C35.146 44.6435 35.0865 44.7442 35.0865 44.8535V44.9492C35.0865 45.1053 35.2063 45.2354 35.3619 45.2482L40.6567 45.6833L35.0865 46.141L43.1508 47.0565H22.8652L30.1542 46.5214C30.2632 46.5134 30.3476 46.4226 30.3476 46.3133C30.3476 46.2133 30.2767 46.1273 30.1785 46.1083L25.6088 45.2255L30.5251 45.6552C30.6979 45.6703 30.8465 45.5341 30.8465 45.3607C30.8465 45.2748 30.8092 45.1933 30.7443 45.1371L29.6825 44.2185L29.2676 44.6754C29.2672 44.6759 29.2664 44.676 29.2659 44.6756L28.7552 44.3241C28.6553 44.2553 28.5368 44.2185 28.4154 44.2185C28.2196 44.2185 28.0361 44.1228 27.924 43.9623L27.6872 43.6234C27.4267 43.2505 27.0005 43.0283 26.5456 43.0283H25.6104C25.6095 43.0283 25.6088 43.0276 25.6088 43.0267Z" fill="black"/>
<path d="M25.6088 42.0213V43.0267C25.6088 43.0276 25.6095 43.0283 25.6104 43.0283H26.5456C27.0005 43.0283 27.4267 43.2505 27.6872 43.6234L27.924 43.9623C28.0361 44.1228 28.2196 44.2185 28.4154 44.2185V44.2185C28.5368 44.2185 28.6553 44.2553 28.7552 44.3241L29.2659 44.6756C29.2664 44.676 29.2672 44.6759 29.2676 44.6754L29.6825 44.2185L30.7443 45.1371C30.8092 45.1933 30.8465 45.2748 30.8465 45.3607V45.3607C30.8465 45.5341 30.6979 45.6703 30.5251 45.6552L25.6088 45.2255L30.1785 46.1083C30.2767 46.1273 30.3476 46.2133 30.3476 46.3133V46.3133C30.3476 46.4226 30.2632 46.5134 30.1542 46.5214L22.8652 47.0565H43.1508L35.0865 46.141L40.6567 45.6833L35.3619 45.2482C35.2063 45.2354 35.0865 45.1053 35.0865 44.9492V44.8535C35.0865 44.7442 35.146 44.6435 35.2418 44.5907L39.2434 42.3875L34.8453 44.5117C34.6876 44.5878 34.5045 44.4729 34.5045 44.2978V44.2978C34.5045 44.2463 34.5212 44.1962 34.5522 44.1551L38.9108 38.3593L34.0602 44.1533C34.0257 44.1946 33.9746 44.2185 33.9207 44.2185V44.2185C33.798 44.2185 33.7104 44.0994 33.7471 43.9822L36.1673 36.2537L33.0912 44.2185V37.4438L32.6893 43.9926C32.6816 44.1195 32.5764 44.2185 32.4492 44.2185V44.2185C32.3381 44.2185 32.2414 44.1424 32.2154 44.0343L30.8465 38.3593L32.0104 44.2185L28.6017 37.9016L31.5315 44.5333C31.5711 44.6229 31.5645 44.7261 31.5138 44.8099L31.4494 44.9163C31.3521 45.077 31.1327 45.1097 30.9927 44.9845L29.9319 44.0354M25.6088 42.0213H26.066H26.1068C26.3808 42.0213 26.6513 42.0839 26.8974 42.2044L27.1479 42.327C27.2292 42.3668 27.3187 42.3875 27.4092 42.3875V42.3875C27.631 42.3875 27.8345 42.511 27.9366 42.7079L27.9509 42.7354C28.0443 42.9154 28.2302 43.0283 28.4329 43.0283V43.0283C28.5429 43.0283 28.6502 43.0617 28.7408 43.124L29.2668 43.4861M25.6088 42.0213L25.8841 41.6906C25.9994 41.5521 26.1702 41.472 26.3505 41.472V41.472C26.4634 41.472 26.5742 41.5035 26.6702 41.5631L28 42.3875L25.1931 38.8171M29.9319 44.0354L30.0982 43.4861M29.9319 44.0354L29.2668 43.4861M29.2668 43.4861V42.3875M23.6135 45.2255V45.2255C23.6135 44.4412 23.4457 43.6659 23.1214 42.9517L22.8701 42.3982C22.8678 42.3932 22.8715 42.3875 22.877 42.3875H24.7674C24.7729 42.3875 24.7774 42.392 24.7774 42.3975V43.7613C24.7774 44.0517 24.6512 44.3276 24.4317 44.5176L23.6135 45.2255Z" stroke="black" stroke-width="0.2"/>
<path d="M32.247 37.5273C27.6075 34.5945 26.8596 26.8363 29.2595 22.8083C29.2631 22.8022 29.2715 22.8018 29.2758 22.8074L32.543 26.9775C32.777 27.2762 33.1598 27.4167 33.5314 27.3404L48.8848 24.1867C48.9339 24.1767 48.9828 24.2044 48.9993 24.2517L49.364 25.2958C49.3774 25.3342 49.3662 25.3769 49.3357 25.4038L49.0315 25.6718C48.9959 25.7031 48.9872 25.755 49.0106 25.7962L49.3325 26.3633C49.3614 26.4142 49.4276 26.4296 49.4759 26.3965L51.788 24.8162C51.7929 24.8129 51.7996 24.8145 51.8024 24.8197L52.2918 25.7179C52.2942 25.7223 52.293 25.7277 52.2891 25.7307L46.8173 29.8389C46.8127 29.8424 46.8062 29.8413 46.803 29.8366L46.3156 29.121C46.3125 29.1165 46.3137 29.1103 46.3181 29.1072L48.1391 27.8311L48.4495 27.0621C48.4632 27.0282 48.4573 26.9896 48.4342 26.9614L47.7642 26.1416C47.7394 26.1112 47.699 26.0982 47.6611 26.1083L42.5689 27.4649V28.5386C42.5689 28.555 42.5729 28.5711 42.5806 28.5856L43.954 31.1655C43.9714 31.1981 44.0053 31.2185 44.0423 31.2185H45.0391C45.048 31.2185 45.0525 31.2292 45.0463 31.2355L44.0278 32.2708C44.0001 32.2989 43.9915 32.3407 44.006 32.3775L44.9977 34.8977C45.0263 34.9704 45.1234 34.9837 45.1705 34.9214L45.4787 34.5142L46.0125 35.102C46.202 35.3107 46.4708 35.4297 46.7528 35.4297H46.8089H47.4129C47.5584 35.4297 47.6552 35.2795 47.595 35.1471L47.3103 34.5199C47.3087 34.5165 47.3093 34.5124 47.3117 34.5094L48.1329 33.5147C48.1364 33.5105 48.1425 33.5098 48.1468 33.5131L48.9705 34.1481L48.4763 33.0597C48.4738 33.0543 48.4767 33.0479 48.4824 33.0461L49.6283 32.6856C49.6326 32.6842 49.6373 32.6859 49.6397 32.6897L50.7444 34.4276C50.7746 34.4751 50.838 34.4883 50.8847 34.4569L52.102 33.6378L52.296 33.5072H54.4407C54.4959 33.5072 54.5407 33.552 54.5407 33.6072V34.1083C54.5407 34.1338 54.531 34.1584 54.5135 34.1769L52.5685 36.2394C52.3935 36.425 52.296 36.6704 52.296 36.9255V37.1581C52.296 37.4013 52.3846 37.6361 52.5452 37.8186L54.5746 40.1255C54.7644 40.3413 55.038 40.465 55.3254 40.465H56.8243C56.8525 40.465 56.8794 40.4769 56.8983 40.4977L57.6168 41.2889C57.0344 43.813 56.5717 45.0033 55.5384 46.7819C49.1977 45.5743 45.5654 45.2003 38.9108 45.2256V37.9931L39.3265 33.5072H38.412V32.6833L38.9108 32.3171L39.8253 31.8593V29.1128L40.241 28.5635V27.8311L34.1071 29.6657C33.74 29.7755 33.4679 30.0854 33.4066 30.4637L32.2622 37.5205C32.2611 37.5276 32.253 37.5311 32.247 37.5273Z" fill="black"/>
<path d="M52.102 33.6378L52.296 33.5072H54.4407C54.4959 33.5072 54.5407 33.552 54.5407 33.6072V34.1083C54.5407 34.1338 54.531 34.1584 54.5135 34.1769L52.5685 36.2394C52.3935 36.425 52.296 36.6704 52.296 36.9255V37.1581C52.296 37.4013 52.3846 37.6361 52.5452 37.8186L54.5746 40.1255C54.7644 40.3413 55.038 40.465 55.3254 40.465H56.8243C56.8525 40.465 56.8794 40.4769 56.8983 40.4977L57.6168 41.2889C57.0344 43.813 56.5717 45.0033 55.5384 46.7819C49.1977 45.5743 45.5654 45.2003 38.9108 45.2256V37.9931L39.3265 33.5072H38.412V32.6833L38.9108 32.3171L39.8253 31.8593V29.1128L40.241 28.5635V27.8311L34.1071 29.6657C33.74 29.7755 33.4679 30.0854 33.4066 30.4637L32.2622 37.5205C32.2611 37.5276 32.253 37.5311 32.247 37.5273C27.6075 34.5945 26.8596 26.8363 29.2595 22.8083C29.2631 22.8022 29.2715 22.8018 29.2758 22.8074L32.543 26.9775C32.777 27.2762 33.1598 27.4167 33.5314 27.3404L48.8848 24.1867C48.9339 24.1767 48.9828 24.2044 48.9993 24.2517L49.364 25.2958C49.3774 25.3342 49.3662 25.3769 49.3357 25.4038L49.0315 25.6718C48.9959 25.7031 48.9872 25.755 49.0106 25.7962L49.3325 26.3633C49.3614 26.4142 49.4276 26.4296 49.4759 26.3965L51.788 24.8162C51.7929 24.8129 51.7996 24.8145 51.8024 24.8197L52.2918 25.7179C52.2942 25.7223 52.293 25.7277 52.2891 25.7307L46.8173 29.8389C46.8127 29.8424 46.8062 29.8413 46.803 29.8366L46.3156 29.121C46.3125 29.1165 46.3137 29.1103 46.3181 29.1072L48.1391 27.8311L48.4495 27.0621C48.4632 27.0282 48.4573 26.9896 48.4342 26.9614L47.7642 26.1416C47.7394 26.1112 47.699 26.0982 47.6611 26.1083L42.5689 27.4649V28.5386C42.5689 28.555 42.5729 28.5711 42.5806 28.5856L43.954 31.1655C43.9714 31.1981 44.0053 31.2185 44.0423 31.2185H45.0391C45.048 31.2185 45.0525 31.2292 45.0463 31.2355L44.0278 32.2708C44.0001 32.2989 43.9915 32.3407 44.006 32.3775L44.9977 34.8977C45.0263 34.9704 45.1234 34.9837 45.1705 34.9214L45.4787 34.5142L46.0125 35.102C46.202 35.3107 46.4708 35.4297 46.7528 35.4297H46.8089H47.4129C47.5584 35.4297 47.6552 35.2795 47.595 35.1471L47.3103 34.5199C47.3087 34.5165 47.3093 34.5124 47.3117 34.5094L48.1329 33.5147C48.1364 33.5105 48.1425 33.5098 48.1468 33.5131L48.9705 34.1481L48.4763 33.0597C48.4738 33.0543 48.4767 33.0479 48.4824 33.0461L49.6283 32.6856C49.6326 32.6842 49.6373 32.6859 49.6397 32.6897L50.7444 34.4276C50.7746 34.4751 50.838 34.4883 50.8847 34.4569L52.102 33.6378ZM52.102 33.6378L51.7972 26.1832" stroke="black" stroke-width="0.2"/>
<path d="M40.9166 38.6226L42.0211 39.6958C42.078 39.7511 42.1735 39.7212 42.1889 39.6434L42.5635 37.7458C42.567 37.7279 42.5753 37.7114 42.5876 37.6979L43.526 36.6646C43.5509 36.6371 43.5586 36.5981 43.5459 36.5632L42.5928 33.9393C42.5784 33.8997 42.5409 33.8734 42.4988 33.8734H41.9154C41.9077 33.8734 41.9 33.8743 41.8924 33.8761L40.8169 34.1299C40.7717 34.1405 40.7398 34.1808 40.7398 34.2272V37.6185C40.7398 37.6737 40.7846 37.7185 40.8398 37.7185H41.6375C41.6927 37.7185 41.7375 37.7633 41.7375 37.8185V38.3509C41.7375 38.4061 41.6927 38.4509 41.6375 38.4509H40.9863C40.8965 38.4509 40.8522 38.56 40.9166 38.6226Z" fill="white" stroke="black" stroke-width="0.2"/>
<path d="M40.9892 29.7131V31.4846C40.9892 31.5399 41.034 31.5846 41.0892 31.5846H41.9901C42.0647 31.5846 42.1131 31.5058 42.0792 31.4393L41.1784 29.6678C41.1307 29.5741 40.9892 29.608 40.9892 29.7131Z" fill="white" stroke="black" stroke-width="0.2"/>
<path d="M43.4834 40.1251V39.4663C43.4834 39.4111 43.5281 39.3663 43.5834 39.3663H44.2584C44.2934 39.3663 44.3258 39.3846 44.3439 39.4145L44.6182 39.8676C44.6363 39.8974 44.6375 39.9345 44.6214 39.9655L44.358 40.4732C44.3337 40.52 44.2772 40.5399 44.2289 40.5187L43.5431 40.2166C43.5068 40.2006 43.4834 40.1647 43.4834 40.1251Z" fill="white" stroke="black" stroke-width="0.2"/>
<path d="M46.8089 29.9368V35.4297" stroke="black" stroke-width="0.2"/>
<path d="M29.8814 28.0731L28.83 28.5363C28.7926 28.5528 28.7689 28.5909 28.7705 28.6318C28.8143 29.7901 28.9247 30.2957 29.2244 30.865C29.2481 30.9101 29.3024 30.9292 29.3495 30.9097L30.4956 30.4365C30.55 30.414 30.5732 30.3494 30.5465 30.297C30.2092 29.6353 30.0761 29.1389 30.0224 28.1605C30.0185 28.0903 29.9458 28.0448 29.8814 28.0731Z" fill="white"/>
<path d="M30.7585 31.1754L29.5918 31.8178C29.5484 31.8417 29.5293 31.8944 29.5467 31.9408C30.1769 33.6202 30.6726 34.4272 31.6169 35.5367C31.6726 35.6022 31.7793 35.571 31.791 35.4858L32.1686 32.7415C32.1736 32.7056 32.1586 32.6698 32.1298 32.6478C31.5826 32.2309 31.2867 31.9163 30.8951 31.2151C30.8681 31.1667 30.807 31.1487 30.7585 31.1754Z" fill="white"/>
<path d="M29.8814 28.0731L28.83 28.5363C28.7926 28.5528 28.7689 28.5909 28.7705 28.6318C28.8143 29.7901 28.9247 30.2957 29.2244 30.865C29.2481 30.9101 29.3024 30.9292 29.3495 30.9097L30.4956 30.4365C30.55 30.414 30.5732 30.3494 30.5465 30.297C30.2092 29.6353 30.0761 29.1389 30.0224 28.1605C30.0185 28.0903 29.9458 28.0448 29.8814 28.0731Z" stroke="black" stroke-width="0.2"/>
<path d="M30.7585 31.1754L29.5918 31.8178C29.5484 31.8417 29.5293 31.8944 29.5467 31.9408C30.1769 33.6202 30.6726 34.4272 31.6169 35.5367C31.6726 35.6022 31.7793 35.571 31.791 35.4858L32.1686 32.7415C32.1736 32.7056 32.1586 32.6698 32.1298 32.6478C31.5826 32.2309 31.2867 31.9163 30.8951 31.2151C30.8681 31.1667 30.807 31.1487 30.7585 31.1754Z" stroke="black" stroke-width="0.2"/>
<path d="M29.2936 24.7022C28.9992 25.589 28.8799 26.2157 28.7803 27.324C28.7742 27.3927 28.838 27.4469 28.9047 27.4296L30.1203 27.1146C30.1576 27.1049 30.1861 27.0744 30.1935 27.0366C30.2778 26.6044 30.3393 26.3122 30.3904 26.1336C30.4159 26.0445 30.3999 25.7741 30.3399 25.7034L29.4637 24.6696C29.4135 24.6104 29.318 24.6286 29.2936 24.7022Z" fill="white" stroke="black" stroke-width="0.2"/>
<path d="M32.0279 30.1206C31.473 29.3426 31.2872 28.8337 31.264 27.9325C31.2626 27.8768 31.3076 27.8312 31.3634 27.8312H31.8329C31.8859 27.8312 31.9296 27.8726 31.9333 27.9254C31.9926 28.7763 32.1574 29.1646 32.5378 29.6807C32.5683 29.7222 32.5633 29.7804 32.5253 29.8152L32.1759 30.1358C32.132 30.1762 32.0626 30.1692 32.0279 30.1206Z" fill="white" stroke="black" stroke-width="0.2"/>
<defs>
<linearGradient id="paint0_linear_67_495" x1="21.937" y1="9.08553e-08" x2="45.4506" y2="56.4968" gradientUnits="userSpaceOnUse">
<stop offset="0.5" stop-color="#FFE600"/>
<stop offset="1" stop-color="#FF0000"/>

</linearGradient>
</defs>
</svg>
