<svg width="55" height="72" viewBox="0 0 55 72" fill="none" xmlns="http://www.w3.org/2000/svg">
<path fill-rule="evenodd" clip-rule="evenodd" d="M32.0372 27.1471C32.0871 27.04 32.1933 26.9822 32.2988 27.0049L36.1398 27.8288C36.2585 27.8543 36.3428 27.9738 36.3378 28.1098L36.1001 34.6696L39.1289 36.5647L43.8818 32.8846C43.977 32.8109 44.105 32.8226 44.1885 32.9125L46.993 35.9336C47.0817 36.0291 47.0935 36.1838 47.0208 36.295L43.7004 41.37L45.3782 44.7084L51.3263 44.4404C51.4396 44.4353 51.541 44.5188 51.5712 44.6418L52.5466 48.6242C52.5782 48.753 52.5229 48.8887 52.4156 48.9457L47.1293 51.7552V55.5936L52.4136 58.3352C52.5197 58.3902 52.5763 58.5224 52.5484 58.6501L51.6948 62.5639C51.667 62.6916 51.5627 62.7791 51.4461 62.7727L45.4205 62.44C45.4095 62.4644 45.3979 62.49 45.3857 62.5166C45.3145 62.6727 45.2238 62.867 45.1347 63.0562C45.0621 63.2104 44.9904 63.3616 44.9309 63.4868C50.7687 66.0882 54.4503 70.8372 55 71.5939L54.8113 71.7678C54.6722 71.9934 54.6721 71.9934 54.6721 71.9934L54.6715 71.9929L54.6685 71.9905L54.6558 71.9807C54.6443 71.9719 54.627 71.9587 54.6037 71.9411C54.5573 71.906 54.4874 71.8539 54.3949 71.7864C54.2097 71.6515 53.9337 71.4554 53.5722 71.2122C52.8493 70.7258 51.7848 70.0513 50.4221 69.3013C47.6965 67.8012 43.7804 66.0007 39.0207 64.8005C29.5045 62.4009 16.6181 62.4 3.11895 72L2.98875 71.7678L2.8045 71.5878C5.81978 67.6722 9.29553 65.2305 12.1471 63.7676C13.5731 63.036 14.8446 62.5484 15.8271 62.2433C16.7847 61.9459 17.4863 61.8161 17.789 61.8119C24.6873 60.919 27.2857 60.5263 31.1667 60.75C35.8612 61.0206 34.5402 60.9848 35.5667 61.125C38.5 61.5 39.5553 61.696 39.8198 61.7417C39.8198 61.7417 39.97 61.7682 40.0269 61.7786C43.8475 54.0816 42.3977 47.1273 38.3031 42.7074C34.2223 38.3023 27.1143 36.5185 20.2413 38.9398C20.1639 38.9677 20.3186 38.9109 20.2413 38.9398H20.2204C20.1947 38.9398 20.1702 38.9295 20.1523 38.9111V38.9111C20.1369 38.8954 20.1275 38.8749 20.1256 38.8529C19.7611 34.5086 19.3759 29.2207 19.2681 27.7115L19.4716 27.6907L23.1905 27.0036C23.2968 26.984 23.402 27.0452 23.4492 27.1543L25.8211 32.6303H29.4841L32.0372 27.1471Z" fill="#FF5C00"/>
<path d="M20.5333 53.9999V56.8153V56.9999V56.6306" stroke="black" stroke-width="0.45"/>
<path d="M17.192 56.7857L17.8096 55.5L19.4857 56.9762L20.2356 57.5L21.2297 58.727L20.2356 58.3571L19.4857 58.0487L18.8422 57.9468L18.2948 58.3571L19.6181 58.6429L20.2356 58.9286L20.5003 59.5L20.9414 59.5476L21.206 59.7857L21.7795 59.2143V58.6429L22 58.9286L21.7795 59.2143L21.206 59.7857L20.8091 59.9762V60.3571V61.1667L20.2356 61.5L20.0151 61.1667L19.2211 60.7857L18.1183 59.5H16.3098L16.1334 59.2143L16.4421 58.6429L16.795 58.3571L16.9715 57.881V57.1667L17.192 56.7857Z" fill="black"/>
<path d="M21.206 59.7857L20.8091 59.9762V60.3571V61.1667L20.2356 61.5L20.0151 61.1667L19.2211 60.7857L18.1183 59.5H16.3098L16.1334 59.2143L16.4421 58.6429L16.795 58.3571L16.9715 57.881V57.1667L17.192 56.7857L17.8096 55.5L19.4857 56.9762L20.2356 57.5L21.2297 58.727L20.2356 58.3571L19.4857 58.0487L18.8422 57.9468L18.2948 58.3571L19.6181 58.6429L20.2356 58.9286L20.5003 59.5L20.9414 59.5476L21.206 59.7857ZM21.206 59.7857L21.7795 59.2143M21.7795 59.2143L22 58.9286L21.7795 58.6429V59.2143Z" stroke="black" stroke-width="0.2"/>
<path d="M24.2 45V47.0735V47.25" stroke="black" stroke-width="0.2"/>
<path d="M11 50.4149L12.2889 46.5373L13.7556 46.0955V45.5556L14.3778 45.3593L15.3111 44.9666L15.8 45.3593L15.9333 44.9666L16.0667 44.7703V43.8377L16.6444 44.2794L16.8805 44.1246L18.4667 44.7703H18.8222L18.6444 43.8377L18.8222 43.2978L19.5778 42.7579L19.0889 42.4634L18.4667 42.7579L18.0222 42.2179L18.8222 41.0399L19.9333 40.5H21.0699L21.1333 41.7271L21.7111 42.3652H22.2889L23.9333 42.7579V43.2978L23.4444 43.4941L23.0444 44.9666L23.9333 46.2692L23.0444 45.5556H22.4222L21.1333 46.8809L19.5778 48.0589L19.7556 49.9241L19.9333 50.0713L21.0699 49.56L21.7111 49.2369L22.0222 48.8442V48.5988V48.3534L23.0444 47.1263L23.4444 47.2736L22.0222 48.5988V48.8442L21.7111 49.2369L21.1333 49.5314L21.0699 49.56L19.9333 50.0713L19.7556 49.9241L19.4 50.4149L19.7556 50.8567L19.9333 51.9856L19.4 50.8567V50.4149V49.5314L19.2222 47.519H18.8222L18.4667 49.5314L17.1333 46.8809V46.0955L15.8 45.3593L15.6667 46.8318L15.9333 47.1263L16.2444 46.8809V47.1263L17.6667 49.5314L17.1333 48.9915L16.8222 49.2369L18.1111 51.1021L15.9333 48.8442L16.2444 51.5929L15.8 54.4889L16.0667 54.8815L16.6444 54.4889L16.4667 55.0779H15.8L14.6444 54.6852L15.1333 53.8999L15.4889 51.1021V48.9915V47.8626L14.4222 46.7336L14.1111 46.8809L14.8667 48.5497V49.9241L14.6444 49.2369L13.9333 48.5497L14.3778 50.0713L13.7556 48.697H13.3556L13.5778 50.8567V51.5929L13.1778 53.3109L14.3778 53.6544L14.1111 54.4889H13.5778L13.1778 54.8815V55.3233H14.3778H14.9556L15.3111 55.716L15.4889 56.5504H15.8V55.716H16.6444L17.3111 54.8815L16.6444 56.1577L16.2444 57.6793L15.8 58.2192L15.3111 59.25L12.5111 58.4647L11.2222 55.3233L11 50.4149Z" fill="black"/>
<path d="M15.8 45.3593L15.6667 46.8318L15.9333 47.1263L16.2444 46.8809V47.1263L17.6667 49.5314L17.1333 48.9915L16.8222 49.2369L18.1111 51.1021L15.9333 48.8442L16.2444 51.5929L15.8 54.4889L16.0667 54.8815L16.6444 54.4889L16.4667 55.0779H15.8L14.6444 54.6852L15.1333 53.8999L15.4889 51.1021V48.9915V47.8626L14.4222 46.7336L14.1111 46.8809L14.8667 48.5497V49.9241L14.6444 49.2369L13.9333 48.5497L14.3778 50.0713L13.7556 48.697H13.3556L13.5778 50.8567V51.5929L13.1778 53.3109L14.3778 53.6544L14.1111 54.4889H13.5778L13.1778 54.8815V55.3233H14.3778H14.9556L15.3111 55.716L15.4889 56.5504H15.8V55.716H16.6444L17.3111 54.8815L16.6444 56.1577L16.2444 57.6793L15.8 58.2192L15.3111 59.25L12.5111 58.4647L11.2222 55.3233L11 50.4149L12.2889 46.5373L13.7556 46.0955V45.5556L14.3778 45.3593L15.3111 44.9666L15.8 45.3593ZM15.8 45.3593L17.1333 46.0955V46.8809L18.4667 49.5314M15.8 45.3593L15.9333 44.9666L16.0667 44.7703V43.8377L16.6444 44.2794L16.8805 44.1246L18.4667 44.7703H18.8222L18.6444 43.8377L18.8222 43.2978L19.5778 42.7579L19.0889 42.4634L18.4667 42.7579L18.0222 42.2179M18.4667 49.5314L18.8222 51.2984L19.2222 52.9182L19.4 55.716M18.4667 49.5314L18.8222 47.519H19.2222L19.4 49.5314V50.4149M19.4 50.4149V50.8567L19.9333 51.9856L19.7556 50.8567L19.4 50.4149ZM19.4 50.4149L19.7556 49.9241M19.7556 49.9241L19.5778 48.0589L21.1333 46.8809L22.4222 45.5556H23.0444L23.9333 46.2692L23.0444 44.9666L23.4444 43.4941L23.9333 43.2978M19.7556 49.9241L19.9333 50.0713L21.0699 49.56M23.9333 43.2978L24.2 44.2794V44.9666M23.9333 43.2978V42.7579L22.2889 42.3652H21.7111L21.1333 41.7271L21.0699 40.5M24.0667 47.2736H23.4444M23.4444 47.2736L23.0444 47.1263L22.0222 48.3534V48.5988M23.4444 47.2736L22.0222 48.5988M21.7111 49.2369L22.0222 48.8442V48.5988M21.7111 49.2369L21.1333 49.5314L21.0699 49.56M21.7111 49.2369L21.0699 49.56M21.0699 40.5L22.0222 40.7454L23.2955 42.3652M21.0699 40.5H19.9333L18.8222 41.0399L18.0222 42.2179M18.0222 42.2179L17.1333 43.8377" stroke="black" stroke-width="0.3"/>
<path d="M21.2667 60.75L21.6578 60.5565V60.0242H22.2933M22.2933 60.0242L22.7333 60.3145V59.7823M22.2933 60.0242V59.25L22.7333 59.7823M22.2933 60.0242L22.7333 59.7823" stroke="black" stroke-width="0.6"/>
<path d="M22.6365 59.8298L22 58.9068H23.3578L23.4835 59.9237L22.6365 60.6629V59.8298Z" fill="black"/>
<path d="M23.8273 59.2627V58.7034H24.0855H24.3437L24.7663 58.9068H25.048L25.2357 59.2627H25.5174L25.893 59.5169L26.2686 59.822L27.0198 60.4831L27.2076 60.178L25.5174 56.4153L27.4423 59.9237L26.785 56.6695L27.5831 59.9237H27.8179L28.0526 56.161V59.9237L29.7897 55.5L28.3813 59.9237H28.5691L31.339 56.6695L28.8507 59.9237V60.178L31.5268 58.9068L29.1794 60.178V60.4831L32.3249 60.7373L29.1794 60.9915L33.7333 61.5H22.278L26.5033 61.1949V60.9915L23.8273 60.4831L26.785 60.7373V60.4831L26.1278 59.9237L25.893 60.178L25.5174 59.9237H25.2357L24.7663 59.2627H23.8273Z" fill="black"/>
<path d="M23.8273 58.7034V59.2627H24.7663L25.2357 59.9237H25.5174L25.893 60.178L26.1278 59.9237L26.785 60.4831V60.7373L23.8273 60.4831L26.5033 60.9915V61.1949L22.278 61.5H33.7333L29.1794 60.9915L32.3249 60.7373L29.1794 60.4831V60.178L31.5268 58.9068L28.8507 60.178V59.9237L31.339 56.6695L28.5691 59.9237H28.3813L29.7897 55.5L28.0526 59.9237V56.161L27.8179 59.9237H27.5831L26.785 56.6695L27.4423 59.9237L25.5174 56.4153L27.2076 60.178L27.0198 60.4831L26.2686 59.822M23.8273 58.7034H24.0855H24.3437L24.7663 58.9068H25.048L25.2357 59.2627H25.5174L25.893 59.5169M23.8273 58.7034L24.0855 58.3983H24.3437L24.9541 58.5L23.5926 56.9237M26.2686 59.822L26.3625 59.5169M26.2686 59.822L25.893 59.5169M25.893 59.5169V58.9068M22 58.9068L22.6365 59.8298V60.6629L23.4835 59.9237L23.3578 58.9068H22Z" stroke="black" stroke-width="0.3"/>
<path d="M34.4667 2.99998C34.5461 2.04873 34.6374 1.5653 34.8934 0.802788L34.4667 2.99998Z" fill="white"/>
<path d="M34.4667 2.99998C34.5461 2.04873 34.6374 1.5653 34.8934 0.802787L34.4667 2.99998ZM34.4667 2.99998C47.2898 -40.0194 34.5909 2.34572 34.4667 2.99998Z" stroke="white" stroke-width="0.01"/>
</svg>
