<svg width="22" height="40" viewBox="0 0 22 40" fill="none" xmlns="http://www.w3.org/2000/svg">
<path d="M17.6876 0H4.31243C2.02399 0 0.162354 1.86156 0.162354 4.15008V35.8498C0.162354 38.1382 2.02407 40 4.31243 40H17.6876C19.976 40 21.8377 38.1383 21.8377 35.8501V4.15008C21.8377 1.86156 19.976 0 17.6876 0ZM9.35235 35.4245C9.35235 35.3827 9.38767 35.3473 9.42954 35.3473H12.5703C12.6122 35.3473 12.6475 35.3827 12.6475 35.4245V36.4936C12.6475 36.5355 12.6122 36.5708 12.5703 36.5708H9.42954C9.38767 36.5708 9.35235 36.5355 9.35235 36.4936V35.4245ZM12.6475 33.5691C12.6475 33.6109 12.6122 33.6462 12.5703 33.6462H9.42954C9.38767 33.6462 9.35235 33.6109 9.35235 33.5691V32.5C9.35235 32.4583 9.38767 32.4231 9.42954 32.4231H12.5703C12.6122 32.4231 12.6475 32.4583 12.6475 32.5V33.5691ZM12.6475 30.6445C12.6475 30.6871 12.6129 30.7217 12.5703 30.7217H9.42954C9.38688 30.7217 9.35235 30.6872 9.35235 30.6445V29.5758C9.35235 29.5339 9.38767 29.4986 9.42954 29.4986H12.5703C12.6122 29.4986 12.6475 29.5339 12.6475 29.5758V30.6445ZM10.9999 27.4591C9.94829 27.4591 9.09259 26.6035 9.09259 25.5519C9.09259 24.5002 9.94829 23.6444 10.9999 23.6444C12.0517 23.6444 12.9074 24.5001 12.9074 25.5519C12.9074 26.6034 12.0517 27.4591 10.9999 27.4591ZM4.31228 2.83625H17.6874C18.469 2.83625 19.1048 3.47195 19.1048 4.25375V21.8425H2.89509V4.25383C2.89509 3.47195 3.53087 2.83625 4.31228 2.83625ZM7.51173 24.6862V26.4176H4.09438L3.00798 24.6862H7.51173ZM6.86134 33.5691C6.86134 33.6109 6.82603 33.6462 6.78431 33.6462H3.64337C3.60165 33.6462 3.56634 33.6109 3.56634 33.5691V32.5C3.56634 32.4577 3.60095 32.4231 3.64337 32.4231H6.78431C6.82681 32.4231 6.86134 32.4577 6.86134 32.5V33.5691ZM6.86134 30.6445C6.86134 30.6871 6.82681 30.7217 6.78431 30.7217H3.64337C3.60095 30.7217 3.56634 30.6872 3.56634 30.6445V29.5758C3.56634 29.5339 3.60165 29.4986 3.64337 29.4986H6.78431C6.82603 29.4986 6.86134 29.5339 6.86134 29.5758V30.6445ZM3.56634 36.4936V35.4245C3.56634 35.3827 3.60165 35.3473 3.64337 35.3473H6.78431C6.82603 35.3473 6.86134 35.3827 6.86134 35.4245V36.4936C6.86134 36.5355 6.82603 36.5708 6.78431 36.5708H3.64337C3.60173 36.5708 3.56634 36.5355 3.56634 36.4936ZM18.9918 24.6862L17.9055 26.4176H14.4881V24.6862H18.9918ZM18.4337 33.5691C18.4337 33.6109 18.3984 33.6462 18.3565 33.6462H15.2157C15.1738 33.6462 15.1385 33.6109 15.1385 33.5691V32.5C15.1385 32.4577 15.1731 32.4231 15.2157 32.4231H18.3565C18.3991 32.4231 18.4337 32.4577 18.4337 32.5V33.5691ZM18.4337 30.6445C18.4337 30.6871 18.3991 30.7217 18.3565 30.7217H15.2157C15.1731 30.7217 15.1385 30.6872 15.1385 30.6445V29.5758C15.1385 29.5339 15.1738 29.4986 15.2157 29.4986H18.3565C18.3984 29.4986 18.4337 29.5339 18.4337 29.5758V30.6445ZM15.1385 36.4936V35.4245C15.1385 35.3827 15.1738 35.3473 15.2157 35.3473H18.3565C18.3984 35.3473 18.4337 35.3827 18.4337 35.4245V36.4936C18.4337 36.5355 18.3984 36.5708 18.3565 36.5708H15.2157C15.1738 36.5708 15.1385 36.5355 15.1385 36.4936Z" fill="#F1CDB3"/>
</svg>
