<svg width="40" height="40" viewBox="0 0 40 40" fill="none" xmlns="http://www.w3.org/2000/svg">
<path d="M33.5691 12.7902V6.1493L27.4186 0H27.0346H13.0416V11.6151C12.0441 10.786 10.7707 10.2763 9.37276 10.2763H8.07698C6.48354 10.2752 5.0476 10.9266 4.01815 11.9743C2.98745 13.0214 2.35643 14.4688 2.35706 16.0586V33.3411C2.35768 37.0141 5.34292 39.9987 9.01604 40H30.9842C34.6572 39.9987 37.6419 37.0141 37.6431 33.3411V18.9267C37.6419 16.1697 35.9608 13.8009 33.5691 12.7902ZM14.8966 1.85492H26.6506L26.7453 1.94969V6.85938H31.6562L31.7142 6.91734V12.3101C31.4745 12.2835 31.2311 12.2678 30.9842 12.2678H14.8966V1.85492ZM4.39674 16.0586C4.39674 14.0261 6.04456 12.3783 8.07698 12.3783H9.37276C11.4053 12.3783 13.0531 14.0261 13.0531 16.0586V25.4256C13.0531 27.458 11.4053 29.1059 9.37276 29.1059H8.07698C6.04448 29.1059 4.39674 27.458 4.39674 25.4256V16.0586ZM35.5411 33.3411C35.5411 35.8578 33.5008 37.8981 30.9841 37.8981H9.01596C6.49924 37.8981 4.45893 35.8578 4.45893 33.3411V29.6053C5.43049 30.4477 6.69362 30.9609 8.07698 30.9609H9.37276C12.4251 30.9609 14.908 28.4779 14.908 25.4256V23.9119V17.8834V14.3697H30.9841C33.5008 14.3697 35.5411 16.41 35.5411 18.9268V33.3411Z" fill="#F1CDB3"/>
<path d="M18.5141 30.2272C17.8505 30.2272 17.3124 30.7658 17.3124 31.4294C17.3124 32.093 17.8505 32.631 18.5141 32.631C19.1777 32.631 19.7163 32.093 19.7163 31.4294C19.7162 30.7658 19.1776 30.2272 18.5141 30.2272Z" fill="#F1CDB3"/>
<path d="M24.6977 30.2272C24.0341 30.2272 23.4961 30.7658 23.4961 31.4294C23.4961 32.093 24.0341 32.631 24.6977 32.631C25.3613 32.631 25.8999 32.093 25.8999 31.4294C25.8999 30.7658 25.3613 30.2272 24.6977 30.2272Z" fill="#F1CDB3"/>
<path d="M30.8815 30.2272C30.2179 30.2272 29.6799 30.7658 29.6799 31.4294C29.6799 32.093 30.2178 32.631 30.8815 32.631C31.5457 32.631 32.0837 32.093 32.0837 31.4294C32.0837 30.7658 31.5457 30.2272 30.8815 30.2272Z" fill="#F1CDB3"/>
<path d="M18.5141 26.3102C17.8505 26.3102 17.3124 26.8488 17.3124 27.5124C17.3124 28.176 17.8505 28.7141 18.5141 28.7141C19.1777 28.7141 19.7163 28.176 19.7163 27.5124C19.7162 26.8488 19.1776 26.3102 18.5141 26.3102Z" fill="#F1CDB3"/>
<path d="M24.6977 26.3102C24.0341 26.3102 23.4961 26.8488 23.4961 27.5124C23.4961 28.176 24.0341 28.7141 24.6977 28.7141C25.3613 28.7141 25.8999 28.176 25.8999 27.5124C25.8999 26.8488 25.3613 26.3102 24.6977 26.3102Z" fill="#F1CDB3"/>
<path d="M30.8815 26.3102C30.2179 26.3102 29.6799 26.8488 29.6799 27.5124C29.6799 28.176 30.2178 28.7141 30.8815 28.7141C31.5457 28.7141 32.0837 28.176 32.0837 27.5124C32.0837 26.8488 31.5457 26.3102 30.8815 26.3102Z" fill="#F1CDB3"/>
<path d="M18.5141 22.3945C17.8505 22.3945 17.3124 22.9331 17.3124 23.5967C17.3124 24.2603 17.8505 24.7983 18.5141 24.7983C19.1777 24.7983 19.7163 24.2603 19.7163 23.5967C19.7163 22.9331 19.1776 22.3945 18.5141 22.3945Z" fill="#F1CDB3"/>
<path d="M24.6977 22.3945C24.0341 22.3945 23.4961 22.9331 23.4961 23.5967C23.4961 24.2603 24.0341 24.7983 24.6977 24.7983C25.3613 24.7983 25.8999 24.2603 25.8999 23.5967C25.8999 22.9331 25.3613 22.3945 24.6977 22.3945Z" fill="#F1CDB3"/>
<path d="M30.8815 22.3945C30.2179 22.3945 29.6799 22.9331 29.6799 23.5967C29.6799 24.2603 30.2178 24.7983 30.8815 24.7983C31.5457 24.7983 32.0837 24.2603 32.0837 23.5967C32.0837 22.9331 31.5457 22.3945 30.8815 22.3945Z" fill="#F1CDB3"/>
<path d="M30.9418 18.1013H18.5757C17.8928 18.1013 17.3391 18.655 17.3391 19.3379C17.3391 20.0209 17.8928 20.5745 18.5757 20.5745H30.9419C31.6249 20.5745 32.1786 20.0209 32.1786 19.3379C32.1785 18.655 31.6248 18.1013 30.9418 18.1013Z" fill="#F1CDB3"/>
</svg>
