<?xml version="1.0" encoding="UTF-8"?>
<!DOCTYPE svg PUBLIC "-//W3C//DTD SVG 1.1//EN" "http://www.w3.org/Graphics/SVG/1.1/DTD/svg11.dtd">
<svg xmlns="http://www.w3.org/2000/svg" version="1.1" width="100px" height="100px" style="shape-rendering:geometricPrecision; text-rendering:geometricPrecision; image-rendering:optimizeQuality; fill-rule:evenodd; clip-rule:evenodd" xmlns:xlink="http://www.w3.org/1999/xlink">
<g><path style="opacity:0.004" fill="#fefffe" d="M 71.5,7.5 C 64.3462,5.34192 57.0128,4.00858 49.5,3.5C 41.9872,4.00858 34.6538,5.34192 27.5,7.5C 30.1841,4.9139 33.5174,3.24724 37.5,2.5C 45.5,1.16667 53.5,1.16667 61.5,2.5C 65.4826,3.24724 68.8159,4.9139 71.5,7.5 Z"/></g>
<g><path style="opacity:0.004" fill="#fefffe" d="M 27.5,7.5 C 26.5539,10.3126 24.5539,11.646 21.5,11.5C 22.4461,8.68737 24.4461,7.35403 27.5,7.5 Z"/></g>
<g><path style="opacity:0.004" fill="#fefffe" d="M 71.5,7.5 C 73.4832,7.15684 74.8166,7.82351 75.5,9.5C 73.5168,9.84316 72.1834,9.17649 71.5,7.5 Z"/></g>
<g><path style="opacity:0.004" fill="#fefffe" d="M 75.5,9.5 C 76.8333,9.5 77.5,10.1667 77.5,11.5C 77.5,10.1667 76.8333,9.5 75.5,9.5 Z"/></g>
<g><path style="opacity:0.004" fill="#fefffe" d="M 21.5,11.5 C 18.8333,15.5 15.5,18.8333 11.5,21.5C 12.2177,17.758 14.2177,14.758 17.5,12.5C 18.6888,11.5713 20.0222,11.238 21.5,11.5 Z"/></g>
<g><path style="opacity:0.004" fill="#fefffe" d="M 77.5,11.5 C 78.9778,11.238 80.3112,11.5713 81.5,12.5C 86.8997,16.2135 90.233,21.2135 91.5,27.5C 86.8913,22.2174 82.2246,16.8841 77.5,11.5 Z"/></g>
<g><path style="opacity:0.008" fill="#fefffe" d="M 22.5,16.5 C 24.4841,16.484 25.4841,17.484 25.5,19.5C 22.3768,24.0824 20.0434,29.0824 18.5,34.5C 14.4021,34.9517 10.4021,36.285 6.5,38.5C 6.33982,36.8008 6.50649,35.1341 7,33.5C 9.69547,29.9704 12.1955,26.3037 14.5,22.5C 17.1971,19.6988 19.8637,17.6988 22.5,16.5 Z M 15.5,27.5 C 16.7965,28.8488 16.6298,30.1821 15,31.5C 14.805,30.1807 14.9717,28.8474 15.5,27.5 Z"/></g>
<g><path style="opacity:0.302" fill="#7ea9ee" d="M 43.5,14.5 C 43.4431,15.609 43.1098,16.609 42.5,17.5C 38.2873,17.9433 34.9539,19.9433 32.5,23.5C 32.8627,24.1835 33.1961,24.8501 33.5,25.5C 32.8333,25.5 32.1667,25.5 31.5,25.5C 31.5,24.1667 31.5,22.8333 31.5,21.5C 34.6114,17.6812 38.6114,15.3479 43.5,14.5 Z"/></g>
<g><path style="opacity:0.218" fill="#7fa9f3" d="M 56.5,14.5 C 63.65,16.6549 68.9834,20.9882 72.5,27.5C 71.6618,27.8417 71.3284,28.5084 71.5,29.5C 71.1667,29.5 70.8333,29.5 70.5,29.5C 70.607,27.0968 69.607,25.2635 67.5,24C 64.9804,22.2368 62.6471,20.2368 60.5,18C 59.2068,17.51 57.8734,17.3433 56.5,17.5C 56.5,16.5 56.5,15.5 56.5,14.5 Z"/></g>
<g><path style="opacity:0.004" fill="#fefffe" d="M 11.5,21.5 C 11.646,24.5539 10.3126,26.5539 7.5,27.5C 7.35403,24.4461 8.68737,22.4461 11.5,21.5 Z"/></g>
<g><path style="opacity:1" fill="#4283f8" d="M 43.5,14.5 C 47.8333,14.5 52.1667,14.5 56.5,14.5C 56.5,15.5 56.5,16.5 56.5,17.5C 57.8734,17.3433 59.2068,17.51 60.5,18C 62.6471,20.2368 64.9804,22.2368 67.5,24C 69.607,25.2635 70.607,27.0968 70.5,29.5C 68.7376,30.2623 67.7376,31.5956 67.5,33.5C 65.1667,35.1667 63.1667,37.1667 61.5,39.5C 59.5801,37.2536 58.2468,34.5869 57.5,31.5C 54.7109,29.9856 51.7109,28.9856 48.5,28.5C 49.9633,24.6794 52.2967,21.346 55.5,18.5C 51.383,16.1926 47.0497,15.8593 42.5,17.5C 43.1098,16.609 43.4431,15.609 43.5,14.5 Z"/></g>
<g><path style="opacity:1" fill="#1a6def" d="M 48.5,28.5 C 45.865,29.4735 43.865,31.1402 42.5,33.5C 42.1667,33.5 41.8333,33.5 41.5,33.5C 41.5,32.8333 41.1667,32.5 40.5,32.5C 39.8333,31.5 39.1667,30.5 38.5,29.5C 37.4154,27.4131 35.7488,26.0798 33.5,25.5C 33.1961,24.8501 32.8627,24.1835 32.5,23.5C 34.9539,19.9433 38.2873,17.9433 42.5,17.5C 47.0497,15.8593 51.383,16.1926 55.5,18.5C 52.2967,21.346 49.9633,24.6794 48.5,28.5 Z"/></g>
<g><path style="opacity:1" fill="#7260a2" d="M 33.5,25.5 C 35.7488,26.0798 37.4154,27.4131 38.5,29.5C 36.2512,28.9202 34.5846,27.5869 33.5,25.5 Z"/></g>
<g><path style="opacity:0.004" fill="#fefffe" d="M 7.5,27.5 C 7.84316,29.4832 7.17649,30.8166 5.5,31.5C 5.15684,29.5168 5.82351,28.1834 7.5,27.5 Z"/></g>
<g><path style="opacity:0.004" fill="#fefffe" d="M 91.5,27.5 C 93.1765,28.1834 93.8432,29.5168 93.5,31.5C 91.8235,30.8166 91.1568,29.4832 91.5,27.5 Z"/></g>
<g><path style="opacity:1" fill="#ee3726" d="M 31.5,25.5 C 32.1667,25.5 32.8333,25.5 33.5,25.5C 34.5846,27.5869 36.2512,28.9202 38.5,29.5C 39.1667,30.5 39.8333,31.5 40.5,32.5C 40.6309,33.3764 40.2975,34.0431 39.5,34.5C 37.2026,31.529 34.2026,29.8624 30.5,29.5C 30.3356,35.3174 30.3356,40.9841 30.5,46.5C 29.8333,47.5 29.1667,48.5 28.5,49.5C 28.1667,49.5 27.8333,49.5 27.5,49.5C 27.7373,48.209 27.404,47.209 26.5,46.5C 26.2743,41.4376 26.6076,36.4376 27.5,31.5C 28.2977,29.0337 29.631,27.0337 31.5,25.5 Z"/></g>
<g><path style="opacity:0.004" fill="#fefffe" d="M 5.5,31.5 C 4.32835,33.8439 4.32835,36.1772 5.5,38.5C 4.00223,41.9674 3.00223,45.634 2.5,49.5C 2.16667,47.5 1.83333,45.5 1.5,43.5C 1.69831,38.9028 3.03165,34.9028 5.5,31.5 Z"/></g>
<g><path style="opacity:1" fill="#379788" d="M 70.5,29.5 C 70.8333,29.5 71.1667,29.5 71.5,29.5C 71.5,29.8333 71.5,30.1667 71.5,30.5C 70.1667,31.5 68.8333,32.5 67.5,33.5C 67.7376,31.5956 68.7376,30.2623 70.5,29.5 Z"/></g>
<g><path style="opacity:0.004" fill="#fefffe" d="M 93.5,31.5 C 95.3079,32.9179 95.9746,34.9179 95.5,37.5C 93.6921,36.0821 93.0254,34.0821 93.5,31.5 Z"/></g>
<g><path style="opacity:1" fill="#ed3f32" d="M 40.5,32.5 C 41.1667,32.5 41.5,32.8333 41.5,33.5C 41.2671,35.0618 40.6005,36.3951 39.5,37.5C 36.7573,39.2393 34.7573,41.5726 33.5,44.5C 32.5,45.1667 31.5,45.8333 30.5,46.5C 30.3356,40.9841 30.3356,35.3174 30.5,29.5C 34.2026,29.8624 37.2026,31.529 39.5,34.5C 40.2975,34.0431 40.6309,33.3764 40.5,32.5 Z"/></g>
<g><path style="opacity:0.178" fill="#6cc07f" d="M 72.5,27.5 C 74.0479,30.6152 75.0479,33.9486 75.5,37.5C 73.5779,35.2075 72.2446,32.5408 71.5,29.5C 71.3284,28.5084 71.6618,27.8417 72.5,27.5 Z"/></g>
<g><path style="opacity:0.537" fill="#ed7067" d="M 27.5,31.5 C 26.6076,36.4376 26.2743,41.4376 26.5,46.5C 25.3516,42.0189 25.1849,37.3522 26,32.5C 26.3826,31.944 26.8826,31.6107 27.5,31.5 Z"/></g>
<g><path style="opacity:0.998" fill="#31a553" d="M 71.5,29.5 C 72.2446,32.5408 73.5779,35.2075 75.5,37.5C 75.1667,40.8333 74.8333,44.1667 74.5,47.5C 73.5,47.5 72.5,47.5 71.5,47.5C 70.2921,50.6091 68.7921,53.6091 67,56.5C 60.7837,62.6591 55.7837,69.6591 52,77.5C 51.5034,79.8098 51.3367,82.1432 51.5,84.5C 50.5,84.5 49.5,84.5 48.5,84.5C 48.4174,77.6668 45.7507,72.3334 40.5,68.5C 39.7659,67.2921 39.4326,65.9587 39.5,64.5C 40.5451,63.1224 41.8784,62.1224 43.5,61.5C 45.5869,60.4154 46.9202,58.7488 47.5,56.5C 50.2427,54.7607 52.2427,52.4274 53.5,49.5C 55.7271,48.5994 56.7271,46.9328 56.5,44.5C 56.5,43.8333 56.5,43.1667 56.5,42.5C 58.5138,42.6085 60.1805,41.9418 61.5,40.5C 60.7084,41.9669 60.7084,43.3002 61.5,44.5C 64.5095,41.1257 67.5095,37.7923 70.5,34.5C 71.4287,33.3112 71.762,31.9778 71.5,30.5C 71.5,30.1667 71.5,29.8333 71.5,29.5 Z"/></g>
<g><path style="opacity:0.063" fill="#fdd395" d="M 41.5,33.5 C 41.8333,33.5 42.1667,33.5 42.5,33.5C 42.5,33.8333 42.5,34.1667 42.5,34.5C 42.5,35.5 42.5,36.5 42.5,37.5C 41.5,37.5 40.5,37.5 39.5,37.5C 40.6005,36.3951 41.2671,35.0618 41.5,33.5 Z"/></g>
<g><path style="opacity:1" fill="#3a9c7f" d="M 67.5,33.5 C 66.2427,36.4274 64.2427,38.7607 61.5,40.5C 61.5,40.1667 61.5,39.8333 61.5,39.5C 63.1667,37.1667 65.1667,35.1667 67.5,33.5 Z"/></g>
<g><path style="opacity:0.004" fill="#fefffe" d="M 95.5,37.5 C 96.7479,38.3339 97.4146,39.6672 97.5,41.5C 97.1667,42.8333 96.8333,44.1667 96.5,45.5C 95.52,42.9135 95.1866,40.2469 95.5,37.5 Z"/></g>
<g><path style="opacity:1" fill="#2aa83a" d="M 71.5,30.5 C 71.762,31.9778 71.4287,33.3112 70.5,34.5C 67.5095,37.7923 64.5095,41.1257 61.5,44.5C 60.7084,43.3002 60.7084,41.9669 61.5,40.5C 64.2427,38.7607 66.2427,36.4274 67.5,33.5C 68.8333,32.5 70.1667,31.5 71.5,30.5 Z"/></g>
<g><path style="opacity:1" fill="#f89713" d="M 39.5,37.5 C 38.2427,40.4274 36.2427,42.7607 33.5,44.5C 34.7573,41.5726 36.7573,39.2393 39.5,37.5 Z"/></g>
<g><path style="opacity:0.137" fill="#7ea7f5" d="M 48.5,28.5 C 51.7109,28.9856 54.7109,29.9856 57.5,31.5C 58.2468,34.5869 59.5801,37.2536 61.5,39.5C 61.5,39.8333 61.5,40.1667 61.5,40.5C 60.1805,41.9418 58.5138,42.6085 56.5,42.5C 58.3387,36.2081 56.0054,32.5414 49.5,31.5C 47.0037,32.2515 44.6704,33.2515 42.5,34.5C 42.5,34.1667 42.5,33.8333 42.5,33.5C 43.865,31.1402 45.865,29.4735 48.5,28.5 Z"/></g>
<g><path style="opacity:0.243" fill="#f1a7a3" d="M 31.5,21.5 C 31.5,22.8333 31.5,24.1667 31.5,25.5C 29.631,27.0337 28.2977,29.0337 27.5,31.5C 26.8826,31.6107 26.3826,31.944 26,32.5C 25.1849,37.3522 25.3516,42.0189 26.5,46.5C 27.404,47.209 27.7373,48.209 27.5,49.5C 27.5,50.1667 27.1667,50.5 26.5,50.5C 26.2172,49.7109 25.7172,49.0442 25,48.5C 24.3333,42.5 24.3333,36.5 25,30.5C 26.6833,27.0087 28.8499,24.0087 31.5,21.5 Z"/></g>
<g><path style="opacity:1" fill="#ffd12a" d="M 39.5,37.5 C 40.5,37.5 41.5,37.5 42.5,37.5C 42.5,38.5 42.5,39.5 42.5,40.5C 40.9519,40.8212 40.2852,41.8212 40.5,43.5C 39.8826,43.3893 39.3826,43.056 39,42.5C 36.6667,44.8333 34.3333,47.1667 32,49.5C 32.1343,47.8107 32.6343,46.144 33.5,44.5C 36.2427,42.7607 38.2427,40.4274 39.5,37.5 Z"/></g>
<g><path style="opacity:1" fill="#fdb90c" d="M 40.5,43.5 C 41.1667,44.1667 41.8333,44.8333 42.5,45.5C 45.2719,47.6116 48.2719,49.2783 51.5,50.5C 49.7484,52.2459 48.4151,54.2459 47.5,56.5C 45.4131,57.5846 44.0798,59.2512 43.5,61.5C 41.8784,62.1224 40.5451,63.1224 39.5,64.5C 36.7289,61.7117 33.7289,59.3783 30.5,57.5C 30.5,57.1667 30.5,56.8333 30.5,56.5C 30.1218,54.079 29.4552,51.7457 28.5,49.5C 29.1667,48.5 29.8333,47.5 30.5,46.5C 31.5,45.8333 32.5,45.1667 33.5,44.5C 32.6343,46.144 32.1343,47.8107 32,49.5C 34.3333,47.1667 36.6667,44.8333 39,42.5C 39.3826,43.056 39.8826,43.3893 40.5,43.5 Z"/></g>
<g><path style="opacity:0.133" fill="#ffe5a6" d="M 42.5,40.5 C 42.3653,42.5542 43.032,44.2209 44.5,45.5C 43.8333,45.5 43.1667,45.5 42.5,45.5C 41.8333,44.8333 41.1667,44.1667 40.5,43.5C 40.2852,41.8212 40.9519,40.8212 42.5,40.5 Z"/></g>
<g><path style="opacity:0.151" fill="#fbd35b" d="M 42.5,45.5 C 43.1667,45.5 43.8333,45.5 44.5,45.5C 47.6248,46.4794 50.9581,46.8128 54.5,46.5C 53.8902,47.391 53.5569,48.391 53.5,49.5C 52.8333,49.8333 52.1667,50.1667 51.5,50.5C 48.2719,49.2783 45.2719,47.6116 42.5,45.5 Z"/></g>
<g><path style="opacity:0.898" fill="#96c25b" d="M 56.5,44.5 C 56.7271,46.9328 55.7271,48.5994 53.5,49.5C 53.5569,48.391 53.8902,47.391 54.5,46.5C 54.5,45.1667 55.1667,44.5 56.5,44.5 Z"/></g>
<g><path style="opacity:0.004" fill="#fefffe" d="M 95.5,61.5 C 95.1796,58.1016 95.513,54.7683 96.5,51.5C 96.8333,53.1667 97.1667,54.8333 97.5,56.5C 97.4439,58.6397 96.7773,60.3064 95.5,61.5 Z"/></g>
<g><path style="opacity:1" fill="#77ab35" d="M 53.5,49.5 C 52.2427,52.4274 50.2427,54.7607 47.5,56.5C 48.4151,54.2459 49.7484,52.2459 51.5,50.5C 52.1667,50.1667 52.8333,49.8333 53.5,49.5 Z"/></g>
<g><path style="opacity:0.004" fill="#fefffe" d="M 3.5,61.5 C 2.2521,60.6661 1.58544,59.3328 1.5,57.5C 1.83333,56.1667 2.16667,54.8333 2.5,53.5C 3.48002,56.0865 3.81335,58.7531 3.5,61.5 Z"/></g>
<g><path style="opacity:0.077" fill="#fee79e" d="M 27.5,49.5 C 27.8333,49.5 28.1667,49.5 28.5,49.5C 29.4552,51.7457 30.1218,54.079 30.5,56.5C 28.631,54.9663 27.2977,52.9663 26.5,50.5C 27.1667,50.5 27.5,50.1667 27.5,49.5 Z"/></g>
<g><path style="opacity:0.251" fill="#fbe8a5" d="M 30.5,57.5 C 33.7289,59.3783 36.7289,61.7117 39.5,64.5C 39.4326,65.9587 39.7659,67.2921 40.5,68.5C 36.5072,65.5038 33.1739,61.8371 30.5,57.5 Z"/></g>
<g><path style="opacity:1" fill="#6fab3c" d="M 47.5,56.5 C 46.9202,58.7488 45.5869,60.4154 43.5,61.5C 44.0798,59.2512 45.4131,57.5846 47.5,56.5 Z"/></g>
<g><path style="opacity:0.004" fill="#fefffe" d="M 3.5,61.5 C 5.30794,62.9179 5.97461,64.9179 5.5,67.5C 3.69206,66.0821 3.02539,64.0821 3.5,61.5 Z"/></g>
<g><path style="opacity:0.004" fill="#fefffe" d="M 95.5,61.5 C 95.9746,64.0821 95.3079,66.0821 93.5,67.5C 93.0254,64.9179 93.6921,62.9179 95.5,61.5 Z"/></g>
<g><path style="opacity:0.004" fill="#fefffe" d="M 5.5,67.5 C 7.17649,68.1834 7.84316,69.5168 7.5,71.5C 5.82351,70.8166 5.15684,69.4832 5.5,67.5 Z"/></g>
<g><path style="opacity:0.004" fill="#fefffe" d="M 93.5,67.5 C 93.8432,69.4832 93.1765,70.8166 91.5,71.5C 91.1568,69.5168 91.8235,68.1834 93.5,67.5 Z"/></g>
<g><path style="opacity:0.004" fill="#fefffe" d="M 7.5,71.5 C 10.3126,72.4461 11.646,74.4461 11.5,77.5C 8.68737,76.5539 7.35403,74.5539 7.5,71.5 Z"/></g>
<g><path style="opacity:0.004" fill="#fefffe" d="M 91.5,71.5 C 91.0828,74.3433 90.0828,77.01 88.5,79.5C 85.5,82.5 82.5,85.5 79.5,88.5C 78.3112,89.4287 76.9778,89.762 75.5,89.5C 80.8908,83.4489 86.2241,77.4489 91.5,71.5 Z"/></g>
<g><path style="opacity:0.129" fill="#78c48d" d="M 74.5,47.5 C 73.095,50.6431 71.4284,53.6431 69.5,56.5C 64.0834,62.4129 59.25,68.7463 55,75.5C 54.3136,78.7971 53.1469,81.7971 51.5,84.5C 51.3367,82.1432 51.5034,79.8098 52,77.5C 55.7837,69.6591 60.7837,62.6591 67,56.5C 68.7921,53.6091 70.2921,50.6091 71.5,47.5C 72.5,47.5 73.5,47.5 74.5,47.5 Z"/></g>
<g><path style="opacity:0.004" fill="#fefffe" d="M 11.5,77.5 C 15.5,80.1667 18.8333,83.5 21.5,87.5C 17.758,86.7823 14.758,84.7823 12.5,81.5C 11.5713,80.3112 11.238,78.9778 11.5,77.5 Z"/></g>
<g><path style="opacity:0.239" fill="#a4d7b2" d="M 40.5,68.5 C 45.7507,72.3334 48.4174,77.6668 48.5,84.5C 45.6546,79.4191 42.9879,74.0857 40.5,68.5 Z"/></g>
<g><path style="opacity:0.004" fill="#fefffe" d="M 21.5,87.5 C 22.8333,87.5 23.5,88.1667 23.5,89.5C 23.5,88.1667 22.8333,87.5 21.5,87.5 Z"/></g>
<g><path style="opacity:0.004" fill="#fefffe" d="M 23.5,89.5 C 26.8577,90.2847 30.191,91.2847 33.5,92.5C 35.3316,93.0568 36.6649,94.0568 37.5,95.5C 33.3714,95.126 29.3714,94.126 25.5,92.5C 24.3881,91.7348 23.7214,90.7348 23.5,89.5 Z"/></g>
<g><path style="opacity:0.004" fill="#fefffe" d="M 75.5,89.5 C 74.4952,92.6694 72.4952,93.6694 69.5,92.5C 70.9876,90.4228 72.9876,89.4228 75.5,89.5 Z"/></g>
<g><path style="opacity:0.004" fill="#fefffe" d="M 61.5,95.5 C 62.8439,93.9652 64.5106,92.6319 66.5,91.5C 67.4287,92.6888 67.762,94.0222 67.5,95.5C 65.5,95.5 63.5,95.5 61.5,95.5 Z"/></g>
<g><path style="opacity:0.004" fill="#fefffe" d="M 37.5,95.5 C 40.8984,95.1796 44.2317,95.513 47.5,96.5C 45.8333,96.8333 44.1667,97.1667 42.5,97.5C 40.3603,97.4439 38.6936,96.7773 37.5,95.5 Z"/></g>
<g><path style="opacity:0.004" fill="#fefffe" d="M 61.5,95.5 C 60.3064,96.7773 58.6397,97.4439 56.5,97.5C 54.8333,97.1667 53.1667,96.8333 51.5,96.5C 54.7683,95.513 58.1016,95.1796 61.5,95.5 Z"/></g>
</svg>
